<svg width="92" height="99" viewBox="0 0 92 99" fill="none" xmlns="http://www.w3.org/2000/svg">
<path fill-rule="evenodd" clip-rule="evenodd" d="M49.7197 8.19784C49.0297 7.93405 48.2667 7.93405 47.5768 8.19784L7.36671 23.5723C6.08555 24.0622 5.29977 25.3585 5.4582 26.721L11.3957 77.7832C11.5109 78.7742 12.1112 79.6431 12.9973 80.1014L47.27 97.8286C48.1344 98.2757 49.1621 98.2757 50.0265 97.8286L84.2991 80.1014C85.1853 79.6431 85.7856 78.7742 85.9008 77.7832L91.8383 26.721C91.9967 25.3585 91.2109 24.0622 89.9298 23.5723L49.7197 8.19784Z" fill="#F06D41"/>
<mask id="path-2-inside-1_130_786" fill="white">
<path fill-rule="evenodd" clip-rule="evenodd" d="M44.7197 0.197845C44.0297 -0.0659482 43.2667 -0.0659482 42.5768 0.197845L2.36671 15.5723C1.08555 16.0622 0.299775 17.3585 0.458197 18.721L6.39567 69.7832C6.5109 70.7742 7.11121 71.6431 7.99733 72.1014L42.27 89.8286C43.1344 90.2757 44.1621 90.2757 45.0265 89.8286L79.2991 72.1014C80.1853 71.6431 80.7856 70.7742 80.9008 69.7832L86.8383 18.721C86.9967 17.3585 86.2109 16.0622 84.9298 15.5723L44.7197 0.197845Z"/>
</mask>
<path d="M86.8383 18.721L84.8517 18.49L86.8383 18.721ZM84.9298 15.5723L85.6441 13.7042L84.9298 15.5723ZM79.2991 72.1014L78.3803 70.325L79.2991 72.1014ZM80.9008 69.7832L82.8874 70.0142L80.9008 69.7832ZM42.27 89.8286L43.1888 88.0522L42.27 89.8286ZM45.0265 89.8286L45.9454 91.6051L45.0265 89.8286ZM6.39567 69.7832L4.40906 70.0142L6.39567 69.7832ZM7.99733 72.1014L7.07848 73.8778L7.99733 72.1014ZM42.5768 0.197845L43.2911 2.06595L42.5768 0.197845ZM44.7197 0.197845L44.0054 2.06595L44.7197 0.197845ZM0.458197 18.721L-1.52842 18.952L0.458197 18.721ZM3.08098 17.4404L43.2911 2.06595L41.8626 -1.67026L1.65243 13.7042L3.08098 17.4404ZM8.38229 69.5522L2.44481 18.49L-1.52842 18.952L4.40906 70.0142L8.38229 69.5522ZM43.1888 88.0522L8.91617 70.325L7.07848 73.8778L41.3511 91.6051L43.1888 88.0522ZM45.9454 91.6051L80.218 73.8778L78.3803 70.325L44.1077 88.0522L45.9454 91.6051ZM82.8874 70.0142L88.8249 18.952L84.8517 18.49L78.9142 69.5522L82.8874 70.0142ZM85.6441 13.7042L45.4339 -1.67026L44.0054 2.06595L84.2155 17.4404L85.6441 13.7042ZM88.8249 18.952C89.0889 16.6812 87.7793 14.5206 85.6441 13.7042L84.2155 17.4404C84.6425 17.6037 84.9045 18.0358 84.8517 18.49L88.8249 18.952ZM80.218 73.8778C81.6949 73.1139 82.6954 71.6658 82.8874 70.0142L78.9142 69.5522C78.8758 69.8826 78.6757 70.1722 78.3803 70.325L80.218 73.8778ZM41.3511 91.6051C42.7919 92.3503 44.5046 92.3503 45.9454 91.6051L44.1077 88.0522C43.8195 88.2012 43.477 88.2012 43.1888 88.0522L41.3511 91.6051ZM4.40906 70.0142C4.6011 71.6658 5.60161 73.1139 7.07848 73.8778L8.91617 70.325C8.6208 70.1722 8.4207 69.8826 8.38229 69.5522L4.40906 70.0142ZM43.2911 2.06595C43.5211 1.97802 43.7754 1.97802 44.0054 2.06595L45.4339 -1.67026C44.2841 -2.10991 43.0124 -2.10991 41.8626 -1.67026L43.2911 2.06595ZM1.65243 13.7042C-0.48283 14.5206 -1.79245 16.6812 -1.52842 18.952L2.44481 18.49C2.392 18.0358 2.65393 17.6037 3.08098 17.4404L1.65243 13.7042Z" fill="black" mask="url(#path-2-inside-1_130_786)"/>
<path d="M52.3745 54.6149H33.4364L30.1824 64H22.438L38.6427 18H47.2332L63.438 64H55.6285L52.3745 54.6149ZM50.292 48.4684L42.938 27.1207L35.5189 48.4684H50.292Z" fill="black"/>
</svg>
