<svg width="95" height="95" viewBox="0 0 95 95" fill="none" xmlns="http://www.w3.org/2000/svg">
<path d="M83.4501 0H11.53C5.16219 0 0 5.16213 0 11.53V83.45C0 89.8178 5.16219 94.98 11.53 94.98H83.4501C89.8179 94.98 94.9801 89.8178 94.9801 83.45V11.53C94.9801 5.16213 89.8179 0 83.4501 0Z" fill="#18B6F6"/>
<path fill-rule="evenodd" clip-rule="evenodd" d="M47.081 65.2231C48.3087 63.6811 49.5388 62.0306 50.7569 60.2832C49.7655 60.3083 48.7637 60.321 47.7528 60.321C46.2956 60.321 44.8571 60.2945 43.4416 60.2429C44.6457 62.0004 45.8635 63.6642 47.081 65.2231ZM47.0602 69.3929C39.3295 78.3773 31.8231 83.1014 27.7159 80.7302C23.6322 78.3724 23.9431 69.5967 27.7957 58.4996C16.5335 56.2655 9 52.1978 9 47.5502C9 42.8342 16.7569 38.7152 28.2956 36.5033C24.442 25.4048 24.1307 16.6278 28.2148 14.2699C32.2326 11.9502 39.5033 16.4204 47.0548 25.0267C54.81 15.9896 62.3493 11.2299 66.4688 13.6083C70.6114 16 70.2318 24.9959 66.2203 36.32C78.3029 38.4823 86.5057 42.7006 86.5057 47.5502C86.5057 52.3324 78.5296 56.5006 66.7223 58.689C70.7309 70.0088 71.1092 79.0006 66.9677 81.3917C62.7608 83.8205 54.9878 78.8055 47.0602 69.3929ZM45.3626 67.3126C43.3468 69.6837 41.3553 71.7451 39.4519 73.4446C36.8173 75.7969 34.4655 77.3531 32.5506 78.1297C30.5965 78.9223 29.5511 78.7387 29.0371 78.4419C28.523 78.1451 27.8413 77.3316 27.5507 75.2431C27.2658 73.1963 27.4376 70.3815 28.1574 66.9238C28.6635 64.4933 29.4244 61.8194 30.4281 58.9769C33.4618 59.4774 36.7225 59.8505 40.1458 60.0751C41.8557 62.6703 43.607 65.0938 45.3626 67.3126ZM41.6338 57.5168C43.6214 57.6232 45.6653 57.6788 47.7528 57.6788C49.3913 57.6788 51.003 57.6445 52.5816 57.5784C53.6959 55.8718 54.7938 54.0871 55.864 52.2335C56.8756 50.4812 57.8216 48.7383 58.6999 47.017C57.965 45.6107 57.1857 44.1917 56.3628 42.7665C55.319 40.9586 54.2489 39.2162 53.1628 37.5479C51.3992 37.4648 49.5929 37.4216 47.7528 37.4216C45.4602 37.4216 43.2202 37.4887 41.0495 37.6164C40.1251 39.0611 39.2133 40.559 38.3208 42.1049C37.3703 43.7512 36.4778 45.3893 35.6449 47.0089C36.6174 48.9473 37.6766 50.9152 38.8196 52.8951C39.7396 54.4886 40.6801 56.0311 41.6338 57.5168ZM34.1858 49.9543C34.9255 51.3669 35.7078 52.7896 36.5314 54.2162C37.1355 55.2626 37.749 56.2887 38.3699 57.2928C35.9241 57.0873 33.5809 56.8038 31.3666 56.4522C32.1853 54.3523 33.1265 52.1772 34.1858 49.9543ZM34.2156 44.0479C34.7967 42.964 35.4025 41.875 36.0325 40.7838C36.6062 39.7901 37.1883 38.8147 37.7773 37.8591C35.7298 38.0429 33.7567 38.2816 31.8738 38.5692C32.5675 40.3472 33.3491 42.179 34.2156 44.0479ZM29.2147 39.0187C30.2001 41.5905 31.3619 44.2646 32.6904 46.9941C31.1512 50.0766 29.821 53.0963 28.7137 55.9868C25.9391 55.452 23.407 54.8058 21.1774 54.0711C17.823 52.9656 15.2994 51.707 13.6693 50.4369C12.0059 49.1409 11.6422 48.1438 11.6422 47.5502C11.6422 46.9566 12.0059 45.9595 13.6693 44.6635C15.2994 43.3934 17.823 42.1348 21.1774 41.0294C23.5405 40.2506 26.2434 39.5714 29.2147 39.0187ZM30.9335 36.0416C33.6463 35.6103 36.5349 35.28 39.5543 35.0657C41.4494 32.18 43.3963 29.5048 45.3444 27.0853C43.5054 24.966 41.6913 23.1094 39.9508 21.5554C37.3162 19.2031 34.9644 17.647 33.0494 16.8703C31.0954 16.0777 30.05 16.2613 29.5359 16.5581C29.0219 16.8549 28.3402 17.6684 28.0495 19.757C27.7647 21.8037 27.9364 24.6185 28.6563 28.0763C29.1634 30.512 29.9266 33.1923 30.9335 36.0416ZM47.0761 29.1502C45.6659 30.9231 44.2528 32.839 42.8585 34.8803C44.4615 34.8137 46.095 34.7794 47.7528 34.7794C48.9612 34.7794 50.1567 34.7976 51.3369 34.8333C49.9257 32.8031 48.498 30.9027 47.0761 29.1502ZM56.4276 37.7505C57.1801 38.9506 57.9224 40.1832 58.6511 41.4454C59.1621 42.3306 59.6573 43.2142 60.1362 44.0949C61.0512 42.1596 61.8763 40.2616 62.6085 38.419C60.6352 38.1409 58.5692 37.9159 56.4276 37.7505ZM60.1649 49.9238C59.5245 51.1287 58.8533 52.3403 58.1522 53.5546C57.3943 54.8674 56.6217 56.1483 55.8381 57.3938C58.3768 57.2119 60.8128 56.9464 63.1181 56.6081C62.26 54.4467 61.274 52.2087 60.1649 49.9238ZM65.7865 56.1739C64.6369 53.2231 63.258 50.1427 61.6644 47.0024C63.0464 44.2107 64.2561 41.4727 65.2831 38.8379C68.6528 39.4206 71.7006 40.1634 74.3282 41.0294C77.6826 42.1348 80.2062 43.3934 81.8363 44.6635C83.4997 45.9595 83.8634 46.9566 83.8634 47.5502C83.8634 48.1438 83.4997 49.1409 81.8363 50.4369C80.2062 51.707 77.6826 52.9656 74.3282 54.0711C71.8321 54.8937 68.9568 55.6052 65.7865 56.1739ZM64.0762 59.1362C60.9382 59.6171 57.5721 59.9637 54.046 60.1535C52.316 62.7342 50.5477 65.1375 48.7787 67.3296C50.9793 69.9731 53.1578 72.2544 55.2317 74.1062C57.8663 76.4585 60.2181 78.0146 62.133 78.7913C64.0871 79.5839 65.1325 79.4003 65.6465 79.1035C66.1606 78.8067 66.8423 77.9932 67.1329 75.9046C67.4178 73.8579 67.246 71.0431 66.5262 67.5854C65.9904 65.0122 65.169 62.1662 64.0762 59.1362ZM54.6343 34.9801C52.7159 32.1094 50.7495 29.4565 48.7867 27.0675C50.8146 24.6789 52.8182 22.6033 54.7328 20.8938C57.3674 18.5415 59.7192 16.9854 61.6342 16.2087C63.5882 15.4162 64.6336 15.5998 65.1477 15.8965C65.6617 16.1933 66.3434 17.0069 66.6341 19.0954C66.9189 21.1422 66.7472 23.957 66.0273 27.4147C65.4902 29.9946 64.6658 32.8489 63.5687 35.8879C60.7525 35.4725 57.7583 35.1646 54.6343 34.9801Z" fill="black"/>
<circle cx="46.9102" cy="48" r="5" fill="black"/>
</svg>
