<svg width="136" height="91" viewBox="0 0 136 91" fill="none" xmlns="http://www.w3.org/2000/svg">
<path fill-rule="evenodd" clip-rule="evenodd" d="M11.4355 60.3077C11.4355 76.7246 24.4078 90.1116 40.6611 90.7776V90.8034H41.8161L41.9314 90.8036L42.0468 90.8034H42.7836L42.6022 80.2605L37.139 80.4842C36.9832 80.4907 36.8293 80.4539 36.6938 80.3777C36.5584 80.3015 36.4465 80.1889 36.3701 80.0519C36.2938 79.9149 36.256 79.7587 36.2606 79.6001C36.2653 79.4415 36.3123 79.2865 36.3966 79.1517L46.2128 63.4897C46.2887 63.3684 46.3924 63.2674 46.5148 63.1956C46.6372 63.1238 46.7745 63.0833 46.9147 63.0777C47.055 63.0722 47.1939 63.1017 47.3192 63.1637C47.4446 63.2256 47.5526 63.3182 47.6337 63.4333L58.1594 78.2583C58.2496 78.3861 58.3036 78.537 58.3155 78.6949C58.3273 78.8529 58.2967 79.0118 58.2267 79.1546C58.1568 79.2975 58.0503 79.419 57.9186 79.5059C57.7868 79.5928 57.6349 79.642 57.4791 79.6481L51.8348 79.8808L52.0192 90.5307C52.0214 90.6228 52.0093 90.7149 51.9833 90.8034H66.8161L66.7441 86.6135L61.2808 86.8372C61.125 86.8437 60.9711 86.8069 60.8357 86.7307C60.7002 86.6545 60.5883 86.5419 60.512 86.4049C60.4357 86.2679 60.3978 86.1117 60.4025 85.9531C60.4071 85.7945 60.4541 85.6395 60.5384 85.5047L70.3547 69.8427C70.4306 69.7214 70.5343 69.6205 70.6566 69.5486C70.779 69.4768 70.9163 69.4363 71.0566 69.4308C71.1968 69.4252 71.3357 69.4547 71.461 69.5167C71.5864 69.5787 71.6944 69.6712 71.7756 69.7863L82.3012 84.6114C82.3915 84.7391 82.4454 84.8901 82.4573 85.048C82.4692 85.2059 82.4385 85.3648 82.3686 85.5077C82.2986 85.6505 82.1921 85.772 82.0604 85.8589C81.9287 85.9458 81.7768 85.995 81.621 86.0011L75.9766 86.2338L76.0557 90.8034H93.4566L93.4282 89.1549L87.965 89.3786C87.8092 89.3851 87.6553 89.3483 87.5198 89.2721C87.3843 89.1959 87.2724 89.0833 87.1961 88.9463C87.1198 88.8093 87.0819 88.6531 87.0866 88.4945C87.0913 88.3359 87.1383 88.1809 87.2226 88.0461L97.0388 72.3841C97.1147 72.2628 97.2184 72.1618 97.3408 72.09C97.4632 72.0182 97.6005 71.9777 97.7407 71.9722C97.881 71.9666 98.0198 71.9961 98.1452 72.0581C98.2705 72.12 98.3785 72.2126 98.4597 72.3277L108.985 87.1528C109.076 87.2805 109.13 87.4314 109.141 87.5894C109.153 87.7473 109.123 87.9062 109.053 88.0491C108.983 88.1919 108.876 88.3134 108.745 88.4003C108.613 88.4872 108.461 88.5364 108.305 88.5425L102.661 88.7752L102.696 90.8034H108.006V90.7736C108.427 90.7933 108.851 90.8033 109.277 90.8033C124.014 90.8033 135.96 78.8565 135.96 64.1194C135.96 49.9894 124.978 38.4245 111.083 37.4957C105.765 21.231 90.4682 9.48114 72.4269 9.48114C57.2118 9.48114 43.9486 17.8381 36.9768 30.2122C22.4908 32.579 11.4355 45.1523 11.4355 60.3077Z" fill="#1A73E8"/>
<mask id="path-2-inside-1_130_765" fill="white">
<path fill-rule="evenodd" clip-rule="evenodd" d="M29.2255 81.2965C12.9722 80.6305 0 67.2434 0 50.8265C0 35.6708 11.0557 23.0973 25.5423 20.7309C32.514 8.35685 45.7772 0 60.9923 0C79.0336 0 94.3306 11.7499 99.6483 28.0146C113.543 28.9439 124.525 40.5086 124.525 54.6383C124.525 69.3754 112.578 81.3222 97.841 81.3222C97.4151 81.3222 96.9916 81.3122 96.5706 81.2925V81.3222H61.0991C61.0635 81.3223 61.0279 81.3224 60.9923 81.3224C60.9567 81.3224 60.9211 81.3223 60.8855 81.3222H30.6113C30.5728 81.3224 30.5344 81.3224 30.4959 81.3224C30.4574 81.3224 30.419 81.3224 30.3805 81.3222H29.2255V81.2965Z"/>
</mask>
<path d="M29.2255 81.2965H31.2255V79.3767L29.3074 79.2981L29.2255 81.2965ZM25.5423 20.7309L25.8647 22.7048L26.8131 22.5499L27.2848 21.7127L25.5423 20.7309ZM99.6483 28.0146L97.7474 28.6361L98.1671 29.92L99.5149 30.0102L99.6483 28.0146ZM96.5706 81.2925L96.6642 79.2947L94.5706 79.1965V81.2925H96.5706ZM96.5706 81.3222V83.3222H98.5706V81.3222H96.5706ZM61.0991 81.3222V79.3222L61.094 79.3222L61.0991 81.3222ZM60.8855 81.3222L60.8906 79.3222H60.8855V81.3222ZM30.6113 81.3222V79.3222L30.6037 79.3222L30.6113 81.3222ZM30.3805 81.3222L30.3881 79.3222H30.3805V81.3222ZM29.2255 81.3222H27.2255V83.3222H29.2255V81.3222ZM29.3074 79.2981C14.1215 78.6759 2 66.1663 2 50.8265H-2C-2 68.3206 11.823 82.585 29.1436 83.2948L29.3074 79.2981ZM2 50.8265C2 36.6667 12.3298 24.9157 25.8647 22.7048L25.2199 18.7571C9.78167 21.2789 -2 34.6749 -2 50.8265H2ZM27.2848 21.7127C33.9165 9.94203 46.5282 2 60.9923 2V-2C45.0263 -2 31.1116 6.77166 23.7998 19.7492L27.2848 21.7127ZM60.9923 2C78.1432 2 92.6905 13.1693 97.7474 28.6361L101.549 27.3931C95.9707 10.3304 79.9241 -2 60.9923 -2V2ZM99.5149 30.0102C112.366 30.8697 122.525 41.5684 122.525 54.6383H126.525C126.525 39.4487 114.719 27.0182 99.7818 26.0191L99.5149 30.0102ZM122.525 54.6383C122.525 68.2708 111.474 79.3222 97.841 79.3222V83.3222C113.683 83.3222 126.525 70.48 126.525 54.6383H122.525ZM97.841 79.3222C97.4464 79.3222 97.0541 79.3129 96.6642 79.2947L96.477 83.2903C96.9291 83.3115 97.3839 83.3222 97.841 83.3222V79.3222ZM94.5706 81.2925V81.3222H98.5706V81.2925H94.5706ZM96.5706 79.3222H61.0991V83.3222H96.5706V79.3222ZM61.094 79.3222C61.0601 79.3223 61.0262 79.3224 60.9923 79.3224V83.3224C61.0296 83.3224 61.0669 83.3223 61.1043 83.3222L61.094 79.3222ZM60.9923 79.3224C60.9584 79.3224 60.9245 79.3223 60.8906 79.3222L60.8803 83.3222C60.9176 83.3223 60.955 83.3224 60.9923 83.3224V79.3224ZM60.8855 79.3222H30.6113V83.3222H60.8855V79.3222ZM30.6037 79.3222C30.5679 79.3224 30.532 79.3224 30.4959 79.3224V83.3224C30.5367 83.3224 30.5777 83.3224 30.6188 83.3222L30.6037 79.3222ZM30.4959 79.3224C30.4598 79.3224 30.4238 79.3224 30.3881 79.3222L30.373 83.3222C30.4141 83.3224 30.455 83.3224 30.4959 83.3224V79.3224ZM30.3805 79.3222H29.2255V83.3222H30.3805V79.3222ZM31.2255 81.3222V81.2965H27.2255V81.3222H31.2255Z" fill="black" mask="url(#path-2-inside-1_130_765)"/>
<path d="M66.7768 42.7106C66.7985 42.0947 66.5815 41.4943 66.1711 41.0346C65.7607 40.5749 65.1885 40.2916 64.5742 40.2437C62.4872 40.2437 59.2329 42.0498 55.7088 41.813C52.895 41.6258 50.7529 39.3571 48.6715 39.0322C47.9439 38.9352 47.2057 39.1048 46.5933 39.5096C45.9809 39.9145 45.5358 40.5273 45.3401 41.2348C44.1287 46.466 51.2651 49.5276 57.4543 49.1862C63.6436 48.8448 66.8263 45.5464 66.7768 42.7106Z" fill="#F4F3E9"/>
<path d="M56.4681 49.913C52.1235 49.913 47.856 48.3547 45.8406 45.9594C45.2592 45.3003 44.8451 44.5108 44.6332 43.6577C44.4214 42.8047 44.4182 41.9132 44.6237 41.0586C44.8607 40.1733 45.4128 39.405 46.1763 38.898C46.9398 38.3911 47.8621 38.1803 48.7701 38.3054C49.8519 38.5529 50.8824 38.987 51.8151 39.5884C53.0486 40.2712 54.3206 40.9816 55.7467 41.0752C57.6905 41.2073 59.6013 40.6622 61.2532 40.1776C62.3201 39.8092 63.431 39.5833 64.5571 39.5058H64.5901C65.3934 39.554 66.147 39.9111 66.693 40.5022C67.239 41.0934 67.5352 41.8729 67.5196 42.6775C67.5746 45.9814 64.1441 49.5221 57.4813 49.891C57.1289 49.9075 56.7985 49.913 56.4681 49.913ZM48.258 39.704C47.7536 39.6953 47.2603 39.8522 46.8535 40.1505C46.4468 40.4489 46.149 40.8723 46.0058 41.356C45.8485 41.9942 45.85 42.6612 46.0104 43.2986C46.1707 43.9361 46.4849 44.5245 46.9254 45.0123C48.8141 47.2589 53.1092 48.6631 57.3546 48.4263C63.0483 48.1069 66.0769 45.227 66.0383 42.6775C66.0674 42.2463 65.9262 41.8209 65.6452 41.4925C65.3642 41.1641 64.9656 40.9589 64.5351 40.921C63.5496 41.0061 62.5785 41.2132 61.6442 41.5377C59.8656 42.0498 57.8447 42.639 55.6476 42.4848C53.9021 42.3692 52.4208 41.5432 51.1158 40.8329C50.3245 40.3317 49.4583 39.96 48.5498 39.7316C48.4533 39.7158 48.3557 39.7066 48.258 39.704Z" fill="black"/>
<path d="M55.6536 31.0534C55.5193 31.0535 55.3877 31.0159 55.2737 30.9448C55.1598 30.8737 55.0682 30.772 55.0093 30.6514C54.6172 29.9068 54.0034 29.3027 53.2527 28.9224C52.4719 28.6492 51.6234 28.6376 50.8354 28.8893C50.6568 28.9461 50.463 28.9311 50.2953 28.8475C50.1275 28.7639 49.9989 28.6183 49.9366 28.4415C49.8743 28.2647 49.8833 28.0706 49.9617 27.9003C50.04 27.73 50.1816 27.5969 50.3563 27.5292C51.4818 27.164 52.697 27.1854 53.8089 27.5898C54.8811 28.1082 55.7563 28.9602 56.3033 30.0181C56.3851 30.1907 56.3958 30.3885 56.3329 30.5688C56.2701 30.7491 56.1388 30.8975 55.9674 30.9818C55.8697 31.0295 55.7623 31.054 55.6536 31.0534Z" fill="black"/>
<path d="M66.16 35.0455C66.025 35.046 65.8924 35.0086 65.7776 34.9375C65.6627 34.8665 65.5701 34.7646 65.5103 34.6435C65.1257 33.8939 64.5124 33.2864 63.7592 32.9089C62.9778 32.639 62.1304 32.6274 61.3419 32.8759C61.1632 32.9327 60.9695 32.9177 60.8018 32.8341C60.634 32.7505 60.5054 32.6049 60.4431 32.4281C60.3808 32.2513 60.3898 32.0572 60.4681 31.8869C60.5465 31.7166 60.688 31.5835 60.8628 31.5158C61.989 31.1532 63.2039 31.1765 64.3154 31.5819C65.389 32.0962 66.2636 32.9496 66.8043 34.0102C66.8588 34.1196 66.8844 34.2412 66.8787 34.3633C66.8729 34.4854 66.836 34.6041 66.7714 34.7079C66.7068 34.8116 66.6167 34.8972 66.5097 34.9563C66.4026 35.0154 66.2823 35.0461 66.16 35.0455Z" fill="black"/>
</svg>
