<svg width="94" height="94" viewBox="0 0 94 94" fill="none" xmlns="http://www.w3.org/2000/svg">
<path d="M46.6307 3.69008C56.5612 3.69652 66.1824 7.14547 73.8554 13.4495C81.5284 19.7535 86.7785 28.5227 88.7117 38.2632C90.6448 48.0038 89.1412 58.1132 84.4571 66.8696C79.773 75.626 72.1981 82.4877 63.0226 86.2859C53.8472 90.0841 43.6387 90.5838 34.1362 87.7C24.6336 84.8162 16.4246 78.7273 10.9076 70.4703C5.39063 62.2133 2.90677 52.299 3.87919 42.4162C4.85162 32.5334 9.22018 23.2934 16.2407 16.2701C20.2167 12.2709 24.9463 9.09979 30.1558 6.94045C35.3653 4.78111 40.9514 3.67634 46.5907 3.69008H46.6307ZM46.5907 8.20632e-05C35.8065 0.00687258 25.3582 3.7522 17.0255 10.598C8.69283 17.4439 2.99127 26.9668 0.891949 37.5447C-1.20738 48.1226 0.425385 59.1011 5.51219 68.6103C10.599 78.1194 18.8251 85.5709 28.7894 89.6955C38.7537 93.8201 49.8397 94.3627 60.1592 91.2308C70.4786 88.0989 79.3931 81.4863 85.3841 72.5194C91.3752 63.5524 94.0722 52.7858 93.0159 42.0534C91.9595 31.3211 87.215 21.2869 79.5907 13.6601C75.2625 9.31968 70.1187 5.87826 64.4551 3.5339C58.7916 1.18953 52.7202 -0.0114355 46.5907 8.20632e-05Z" fill="#F06D41"/>
<path d="M43.1702 30.9506L42.1002 33.4106C41.9623 33.7344 41.9574 34.0995 42.0865 34.427C42.2156 34.7544 42.4684 35.0179 42.7902 35.1606L56.0402 40.9306L24.0402 52.2006C23.7175 52.3225 23.4543 52.5641 23.3053 52.8752C23.1563 53.1862 23.133 53.5428 23.2402 53.8706L24.1302 56.3906C24.2481 56.7239 24.4929 56.9971 24.8113 57.1507C25.1297 57.3043 25.496 57.3258 25.8302 57.2106L57.8302 45.9406L51.1202 58.7306C51.0384 58.8854 50.988 59.055 50.9718 59.2294C50.9557 59.4038 50.9742 59.5797 51.0262 59.7469C51.0782 59.9142 51.1628 60.0695 51.2751 60.2039C51.3873 60.3384 51.525 60.4494 51.6802 60.5305L54.0502 61.7706C54.3635 61.9331 54.7283 61.9655 55.0653 61.8606C55.4024 61.7558 55.6844 61.5222 55.8502 61.2106L66.3902 41.1306C66.4756 40.9677 66.5266 40.7889 66.5399 40.6054C66.5532 40.422 66.5287 40.2377 66.4677 40.0642C66.4067 39.8906 66.3106 39.7315 66.1855 39.5966C66.0603 39.4618 65.9087 39.3542 65.7402 39.2805L44.9502 30.2306C44.7864 30.1585 44.6098 30.12 44.4308 30.1173C44.2519 30.1147 44.0742 30.1478 43.9083 30.2149C43.7424 30.282 43.5916 30.3817 43.4648 30.5081C43.338 30.6344 43.2379 30.7849 43.1702 30.9506Z" fill="#F06D41"/>
<path d="M55.8206 59.9407C55.5356 59.9374 55.2551 59.869 55.0006 59.7407L52.6306 58.4907C52.2213 58.2835 51.9092 57.9247 51.7606 57.4907C51.6901 57.2673 51.6644 57.0321 51.6849 56.7987C51.7055 56.5654 51.772 56.3383 51.8806 56.1307L58.0706 44.3407L27.0706 55.2407C26.85 55.3196 26.616 55.354 26.3821 55.3418C26.1482 55.3297 25.919 55.2712 25.7079 55.1698C25.4967 55.0684 25.3078 54.9261 25.152 54.7512C24.9963 54.5763 24.8768 54.3722 24.8005 54.1507L23.9105 51.6307C23.7566 51.185 23.7848 50.6967 23.9889 50.2716C24.193 49.8466 24.5565 49.5192 25.0006 49.3607L56.0006 38.4707L43.7805 33.1507C43.5652 33.055 43.3711 32.9172 43.2097 32.7455C43.0482 32.5738 42.9227 32.3716 42.8405 32.1507C42.7492 31.9357 42.7022 31.7043 42.7022 31.4707C42.7022 31.237 42.7492 31.0058 42.8405 30.7907L43.9105 28.3407C44.0993 27.9087 44.4516 27.5694 44.8903 27.3969C45.329 27.2244 45.8182 27.233 46.2506 27.4207L67.0405 36.4707C67.264 36.568 67.4651 36.7103 67.6314 36.8885C67.7976 37.0668 67.9255 37.2772 68.0071 37.5069C68.0887 37.7366 68.1221 37.9807 68.1055 38.2238C68.0889 38.467 68.0226 38.7042 67.9105 38.9207L57.3706 59.0107C57.2196 59.2907 56.996 59.5249 56.7232 59.6885C56.4505 59.8522 56.1387 59.9393 55.8206 59.9407ZM59.9105 42.7207L52.6705 56.5007C52.562 56.7107 52.5405 56.9549 52.6105 57.1807C52.6434 57.2946 52.6994 57.4005 52.7752 57.4917C52.8509 57.5829 52.9446 57.6575 53.0505 57.7107L55.4105 58.9507C55.6215 59.0599 55.8672 59.0812 56.0939 59.01C56.3206 58.9389 56.5099 58.7809 56.6206 58.5707L67.1505 38.4907C67.2103 38.3832 67.2458 38.264 67.2545 38.1413C67.2631 38.0186 67.2447 37.8955 67.2006 37.7807C67.1626 37.6646 67.1 37.5581 67.0172 37.4684C66.9344 37.3786 66.8332 37.3078 66.7205 37.2607L45.9305 28.2607C45.7144 28.1668 45.4698 28.1626 45.2504 28.2488C45.0311 28.335 44.8549 28.5047 44.7606 28.7207L43.6906 31.1707C43.6411 31.2781 43.6138 31.3943 43.6103 31.5124C43.6068 31.6306 43.6271 31.7482 43.67 31.8584C43.7129 31.9685 43.7776 32.0689 43.8602 32.1535C43.9427 32.2381 44.0415 32.3051 44.1505 32.3507L58.4406 38.5607L25.3505 50.2107C25.2385 50.2483 25.1354 50.3085 25.0476 50.3876C24.9599 50.4668 24.8894 50.5631 24.8405 50.6707C24.7937 50.7779 24.7696 50.8937 24.7696 51.0107C24.7696 51.1277 24.7937 51.2434 24.8405 51.3507L25.7305 53.8707C25.8116 54.0909 25.9721 54.2728 26.1805 54.3807C26.3983 54.4707 26.6428 54.4707 26.8605 54.3807L59.9105 42.7207Z" fill="black"/>
</svg>
