<svg width="64" height="92" viewBox="0 0 64 92" fill="none" xmlns="http://www.w3.org/2000/svg">
<ellipse cx="50" cy="49.5" rx="14" ry="14.5" fill="#18B6F6"/>
<ellipse cx="21.5" cy="21" rx="14.5" ry="14" fill="#F06D41"/>
<ellipse cx="20" cy="49.5" rx="14" ry="14.5" fill="#AC7EF4"/>
<circle cx="50" cy="21" r="14" fill="#EEB1CA"/>
<ellipse cx="21.5" cy="78" rx="14.5" ry="14" fill="#33B533"/>
<rect x="22" y="7" width="15" height="28" fill="#F06D41"/>
<rect x="21" y="35" width="15" height="29" fill="#AC7EF4"/>
<rect x="21" y="64" width="15" height="14" fill="#33B533"/>
<rect x="36" y="7" width="14" height="28" fill="#EEB1CA"/>
<mask id="path-10-outside-1_132_1547" maskUnits="userSpaceOnUse" x="0" y="0" width="62" height="89" fill="black">
<rect fill="white" width="62" height="89"/>
<path fill-rule="evenodd" clip-rule="evenodd" d="M45.7319 30.3333H32.7971H31.5652V44.5V58.6667V72.8333V73.4493H31.5521C31.2296 80.9876 25.0162 87 17.3986 87C9.57452 87 3.23188 80.6574 3.23188 72.8333C3.23188 65.2157 9.24433 59.0023 16.7826 58.6798V58.6667V58.6535C16.5784 58.6623 16.373 58.6667 16.1667 58.6667C8.34263 58.6667 2 52.324 2 44.5C2 36.676 8.34263 30.3333 16.1667 30.3333C16.373 30.3333 16.5784 30.3377 16.7826 30.3465V30.3333H17.3986H18.0145V30.3202C17.8103 30.3289 17.6049 30.3333 17.3986 30.3333C9.57452 30.3333 3.23188 23.9907 3.23188 16.1667C3.23188 8.34263 9.57452 2 17.3986 2C17.6049 2 17.8103 2.00441 18.0145 2.01315V2H31.5652H32.7971H45.7319H46.3478V2.01315C53.8861 2.33563 59.8986 8.54901 59.8986 16.1667C59.8986 23.7843 53.8861 29.9977 46.3478 30.3202V30.3333H45.7319ZM45.7319 30.3333C37.9079 30.3333 31.5652 36.676 31.5652 44.5C31.5652 52.324 37.9079 58.6667 45.7319 58.6667C53.5559 58.6667 59.8986 52.324 59.8986 44.5C59.8986 36.676 53.5559 30.3333 45.7319 30.3333Z"/>
</mask>
<path d="M31.5652 30.3333V28.3333H29.5652V30.3333H31.5652ZM31.5652 73.4493V75.4493H33.5652V73.4493H31.5652ZM31.5521 73.4493V71.4493H29.6358L29.5539 73.3638L31.5521 73.4493ZM16.7826 58.6798L16.8681 60.678L18.7826 60.5961V58.6798H16.7826ZM16.7826 58.6535H18.7826V56.5661L16.6971 56.6553L16.7826 58.6535ZM16.7826 30.3465L16.6971 32.3447L18.7826 32.4339V30.3465H16.7826ZM16.7826 30.3333V28.3333H14.7826V30.3333H16.7826ZM18.0145 30.3333V32.3333H20.0145V30.3333H18.0145ZM18.0145 30.3202H20.0145V28.2328L17.929 28.322L18.0145 30.3202ZM18.0145 2.01315L17.929 4.01132L20.0145 4.10054V2.01315H18.0145ZM18.0145 2V0H16.0145V2H18.0145ZM46.3478 2H48.3478V0H46.3478V2ZM46.3478 2.01315H44.3478V3.92942L46.2623 4.01132L46.3478 2.01315ZM46.3478 30.3202L46.2623 28.322L44.3478 28.4039V30.3202H46.3478ZM46.3478 30.3333V32.3333H48.3478V30.3333H46.3478ZM45.7319 28.3333H32.7971V32.3333H45.7319V28.3333ZM32.7971 28.3333H31.5652V32.3333H32.7971V28.3333ZM29.5652 30.3333V44.5H33.5652V30.3333H29.5652ZM29.5652 44.5V58.6667H33.5652V44.5H29.5652ZM29.5652 58.6667V72.8333H33.5652V58.6667H29.5652ZM29.5652 72.8333V73.4493H33.5652V72.8333H29.5652ZM31.5652 71.4493H31.5521V75.4493H31.5652V71.4493ZM29.5539 73.3638C29.277 79.8363 23.9403 85 17.3986 85V89C26.0921 89 33.1822 82.1388 33.5502 73.5348L29.5539 73.3638ZM17.3986 85C10.6791 85 5.23188 79.5528 5.23188 72.8333H1.23188C1.23188 81.7619 8.46995 89 17.3986 89V85ZM5.23188 72.8333C5.23188 66.2916 10.3955 60.9549 16.8681 60.678L16.6971 56.6816C8.09312 57.0497 1.23188 64.1397 1.23188 72.8333H5.23188ZM18.7826 58.6798V58.6667H14.7826V58.6798H18.7826ZM18.7826 58.6667V58.6535H14.7826V58.6667H18.7826ZM16.6971 56.6553C16.5214 56.6629 16.3445 56.6667 16.1667 56.6667V60.6667C16.4016 60.6667 16.6354 60.6616 16.8681 60.6517L16.6971 56.6553ZM16.1667 56.6667C9.4472 56.6667 4 51.2195 4 44.5H0C0 53.4286 7.23806 60.6667 16.1667 60.6667V56.6667ZM4 44.5C4 37.7805 9.4472 32.3333 16.1667 32.3333V28.3333C7.23806 28.3333 0 35.5714 0 44.5H4ZM16.1667 32.3333C16.3445 32.3333 16.5214 32.3371 16.6971 32.3447L16.8681 28.3483C16.6354 28.3384 16.4016 28.3333 16.1667 28.3333V32.3333ZM18.7826 30.3465V30.3333H14.7826V30.3465H18.7826ZM16.7826 32.3333H17.3986V28.3333H16.7826V32.3333ZM17.3986 32.3333H18.0145V28.3333H17.3986V32.3333ZM20.0145 30.3333V30.3202H16.0145V30.3333H20.0145ZM17.929 28.322C17.7533 28.3295 17.5764 28.3333 17.3986 28.3333V32.3333C17.6334 32.3333 17.8673 32.3283 18.1 32.3184L17.929 28.322ZM17.3986 28.3333C10.6791 28.3333 5.23188 22.8861 5.23188 16.1667H1.23188C1.23188 25.0953 8.46995 32.3333 17.3986 32.3333V28.3333ZM5.23188 16.1667C5.23188 9.4472 10.6791 4 17.3986 4V0C8.46995 0 1.23188 7.23806 1.23188 16.1667H5.23188ZM17.3986 4C17.5764 4 17.7533 4.0038 17.929 4.01132L18.1 0.0149769C17.8673 0.00502264 17.6334 0 17.3986 0V4ZM20.0145 2.01315V2H16.0145V2.01315H20.0145ZM18.0145 4H31.5652V0H18.0145V4ZM31.5652 4H32.7971V0H31.5652V4ZM32.7971 4H45.7319V0H32.7971V4ZM45.7319 4H46.3478V0H45.7319V4ZM44.3478 2V2.01315H48.3478V2H44.3478ZM46.2623 4.01132C52.7349 4.28821 57.8986 9.62495 57.8986 16.1667H61.8986C61.8986 7.47307 55.0373 0.383049 46.4333 0.014977L46.2623 4.01132ZM57.8986 16.1667C57.8986 22.7084 52.7349 28.0451 46.2623 28.322L46.4333 32.3184C55.0373 31.9503 61.8986 24.8603 61.8986 16.1667H57.8986ZM44.3478 30.3202V30.3333H48.3478V30.3202H44.3478ZM46.3478 28.3333H45.7319V32.3333H46.3478V28.3333ZM45.7319 28.3333C36.8033 28.3333 29.5652 35.5714 29.5652 44.5H33.5652C33.5652 37.7805 39.0124 32.3333 45.7319 32.3333V28.3333ZM29.5652 44.5C29.5652 53.4286 36.8033 60.6667 45.7319 60.6667V56.6667C39.0124 56.6667 33.5652 51.2195 33.5652 44.5H29.5652ZM45.7319 60.6667C54.6605 60.6667 61.8986 53.4286 61.8986 44.5H57.8986C57.8986 51.2195 52.4514 56.6667 45.7319 56.6667V60.6667ZM61.8986 44.5C61.8986 35.5714 54.6605 28.3333 45.7319 28.3333V32.3333C52.4514 32.3333 57.8986 37.7805 57.8986 44.5H61.8986Z" fill="black" mask="url(#path-10-outside-1_132_1547)"/>
</svg>
