<svg width="163" height="153" viewBox="0 0 163 153" fill="none" xmlns="http://www.w3.org/2000/svg">
<path d="M162.063 59.0562C162.063 7.57632 67.7317 -29.8756 15.261 32.8415C-13.3976 67.0899 -2.81264 147.055 56.544 152.025C114.918 156.922 113.407 119.742 129.598 87.7148C136.641 73.7364 162.063 82.1251 162.063 59.0562Z" fill="#F06D41"/>
<path d="M76.2518 58.2138C70.5024 58.3081 64.9089 56.343 60.4818 52.6736C60.2864 52.4744 60.1756 52.2075 60.1724 51.9285C60.1693 51.6496 60.2741 51.3802 60.4648 51.1766C60.6556 50.9731 60.9176 50.8511 61.1961 50.8362C61.4747 50.8213 61.7483 50.9146 61.9597 51.0966C66.0029 54.3594 71.0567 56.1112 76.2518 56.0505C81.4988 56.0896 86.6031 54.3426 90.7257 51.0966C90.9392 50.9111 91.2168 50.8167 91.4991 50.8335C91.7814 50.8502 92.046 50.977 92.236 51.1864C92.426 51.3959 92.5265 51.6714 92.5158 51.954C92.5051 52.2367 92.3842 52.5038 92.1788 52.6983C87.6727 56.3329 82.0406 58.2832 76.2518 58.2138Z" fill="black"/>
<path d="M65.3367 43.1787C63.5404 43.1787 61.7844 42.646 60.2908 41.648C58.7973 40.6501 57.6332 39.2316 56.9458 37.5721C56.2583 35.9125 56.0785 34.0863 56.4289 32.3246C56.7793 30.5628 57.6444 28.9445 58.9146 27.6743C60.1847 26.4041 61.8031 25.5391 63.5648 25.1887C65.3266 24.8382 67.1527 25.0181 68.8123 25.7055C70.4719 26.3929 71.8903 27.557 72.8883 29.0506C73.8863 30.5442 74.419 32.3001 74.419 34.0964C74.419 36.5052 73.4621 38.8153 71.7588 40.5186C70.0556 42.2218 67.7455 43.1787 65.3367 43.1787ZM65.3367 27.1031C63.9601 27.1031 62.6144 27.5113 61.4697 28.2761C60.3251 29.0409 59.433 30.128 58.9062 31.3998C58.3794 32.6716 58.2415 34.0711 58.5101 35.4213C58.7787 36.7714 59.4416 38.0117 60.415 38.9851C61.3884 39.9585 62.6286 40.6214 63.9788 40.89C65.3289 41.1585 66.7284 41.0207 68.0002 40.4939C69.2721 39.9671 70.3592 39.075 71.124 37.9303C71.8888 36.7857 72.297 35.44 72.297 34.0634C72.2948 32.2181 71.5608 30.449 70.256 29.1441C68.9511 27.8393 67.182 27.1053 65.3367 27.1031Z" fill="black"/>
<path d="M88.0594 43.1787C86.2631 43.1787 84.507 42.646 83.0135 41.648C81.5199 40.6501 80.3558 39.2316 79.6684 37.5721C78.981 35.9125 78.8011 34.0863 79.1516 32.3246C79.502 30.5628 80.367 28.9445 81.6372 27.6743C82.9074 26.4041 84.5257 25.5391 86.2875 25.1887C88.0493 24.8382 89.8754 25.0181 91.5349 25.7055C93.1945 26.3929 94.613 27.557 95.6109 29.0506C96.6089 30.5442 97.1416 32.3001 97.1416 34.0964C97.1416 36.5052 96.1848 38.8153 94.4815 40.5186C92.7782 42.2218 90.4681 43.1787 88.0594 43.1787ZM88.0594 27.1031C86.6827 27.1031 85.337 27.5113 84.1924 28.2761C83.0478 29.0409 82.1557 30.128 81.6288 31.3998C81.102 32.6716 80.9642 34.0711 81.2327 35.4213C81.5013 36.7714 82.1642 38.0117 83.1377 38.9851C84.1111 39.9585 85.3513 40.6214 86.7014 40.89C88.0516 41.1585 89.4511 41.0207 90.7229 40.4939C91.9947 39.9671 93.0818 39.075 93.8466 37.9303C94.6114 36.7857 95.0196 35.44 95.0196 34.0634C95.0174 32.2181 94.2835 30.449 92.9786 29.1441C91.6738 27.8393 89.9047 27.1053 88.0594 27.1031Z" fill="black"/>
</svg>
