<svg width="95" height="95" viewBox="0 0 95 95" fill="none" xmlns="http://www.w3.org/2000/svg">
<path d="M83.4501 0H11.53C5.16219 0 0 5.16213 0 11.53V83.45C0 89.8178 5.16219 94.98 11.53 94.98H83.4501C89.8179 94.98 94.9801 89.8178 94.9801 83.45V11.53C94.9801 5.16213 89.8179 0 83.4501 0Z" fill="#EEB1CA"/>
<path d="M87.4501 82.9789H6.81004C6.66931 82.9789 6.53105 82.9423 6.40879 82.8726C6.28654 82.8028 6.18456 82.7024 6.1129 82.5813C6.04123 82.4602 6.00235 82.3225 6.0001 82.1818C5.99786 82.041 6.03232 81.9023 6.10008 81.7789L46.42 7.88885C46.4899 7.76164 46.5927 7.65557 46.7176 7.58167C46.8425 7.50776 46.985 7.46875 47.1301 7.46875C47.2752 7.46875 47.4177 7.50776 47.5426 7.58167C47.6675 7.65557 47.7702 7.76164 47.8401 7.88885L88.1601 81.7789C88.2279 81.9023 88.2622 82.041 88.26 82.1818C88.2577 82.3225 88.219 82.4602 88.1473 82.5813C88.0757 82.7024 87.9737 82.8028 87.8514 82.8726C87.7292 82.9423 87.5908 82.9789 87.4501 82.9789V82.9789ZM8.16014 81.3589H86.1001L47.1001 9.95886L8.16014 81.3589Z" fill="black"/>
<path d="M27.4109 66.9193C27.2735 66.9184 27.1386 66.8825 27.0189 66.8151C26.8992 66.7476 26.7986 66.6509 26.7265 66.5339C26.6545 66.4169 26.6135 66.2835 26.6073 66.1462C26.601 66.009 26.6297 65.8725 26.6908 65.7494L29.5209 60.0994C29.5884 59.9693 29.6902 59.8604 29.8154 59.7843C29.9406 59.7082 30.0843 59.668 30.2308 59.668C30.3773 59.668 30.521 59.7082 30.6462 59.7843C30.7714 59.8604 30.8733 59.9693 30.9408 60.0994L34.0808 65.7494C34.1335 65.8409 34.1675 65.9421 34.1804 66.047C34.1934 66.1519 34.1851 66.2582 34.1562 66.3599C34.1273 66.4615 34.0783 66.5563 34.0121 66.6387C33.9459 66.721 33.8639 66.7893 33.7709 66.8394C33.5838 66.9436 33.363 66.9696 33.1568 66.9115C32.9507 66.8534 32.7759 66.716 32.6708 66.5294L30.2809 62.2194L28.1409 66.4994C28.0677 66.6282 27.9614 66.735 27.833 66.8088C27.7046 66.8827 27.559 66.9208 27.4109 66.9193Z" fill="black"/>
<path d="M61.3507 66.9186C61.2252 66.9184 61.1016 66.8876 60.9907 66.8287C60.8957 66.7819 60.811 66.7168 60.7413 66.637C60.6717 66.5572 60.6186 66.4644 60.5851 66.3639C60.5516 66.2635 60.5383 66.1573 60.5461 66.0517C60.554 65.9461 60.5828 65.8431 60.6307 65.7487L63.4507 60.0987C63.5182 59.9673 63.6197 59.8563 63.7445 59.7772C63.8693 59.698 64.0131 59.6538 64.1608 59.6487C64.308 59.6447 64.4533 59.6818 64.5806 59.756C64.7078 59.8303 64.8118 59.9385 64.8807 60.0687L68.0207 65.7187C68.0717 65.8112 68.1038 65.9129 68.1153 66.0179C68.1269 66.1229 68.1175 66.229 68.0878 66.3304C68.058 66.4317 68.0084 66.5261 67.942 66.6082C67.8756 66.6903 67.7936 66.7584 67.7007 66.8087C67.6091 66.8614 67.5079 66.8953 67.4031 66.9083C67.2982 66.9212 67.1918 66.913 67.0902 66.8841C66.9886 66.8552 66.8937 66.8061 66.8114 66.7399C66.729 66.6737 66.6608 66.5918 66.6107 66.4987L64.2107 62.1887L62.0707 66.4687C62.0032 66.6023 61.9003 66.7148 61.7734 66.7941C61.6465 66.8734 61.5003 66.9165 61.3507 66.9186Z" fill="black"/>
<path d="M57.89 75.1697H36.8099C36.6967 75.1823 36.5821 75.171 36.4735 75.1363C36.365 75.1017 36.265 75.0444 36.1801 74.9684C36.0951 74.8924 36.0272 74.7995 35.9807 74.6954C35.9342 74.5914 35.9102 74.4787 35.9102 74.3647C35.9102 74.2508 35.9342 74.1381 35.9807 74.0341C36.0272 73.93 36.0951 73.837 36.1801 73.761C36.265 73.685 36.365 73.6278 36.4735 73.5931C36.5821 73.5584 36.6967 73.547 36.8099 73.5597H57.89C58.0881 73.5818 58.271 73.6762 58.4038 73.8247C58.5367 73.9732 58.6101 74.1655 58.6101 74.3647C58.6101 74.564 58.5367 74.7563 58.4038 74.9048C58.271 75.0533 58.0881 75.1476 57.89 75.1697Z" fill="black"/>
</svg>
