<svg width="77" height="93" viewBox="0 0 77 93" fill="none" xmlns="http://www.w3.org/2000/svg">
<path d="M74.3459 37.0033L18.0461 1.13504C17.6109 0.855998 17.1139 0.687943 16.5987 0.645581C16.0834 0.60322 15.5656 0.68785 15.0907 0.892068C14.6158 1.09629 14.1982 1.41386 13.8745 1.81695C13.5508 2.22005 13.3309 2.69637 13.2341 3.20419L0.68452 68.7911C0.577083 69.3554 0.6254 69.9382 0.824262 70.477C1.02312 71.0159 1.36501 71.4904 1.81323 71.8496C2.26145 72.2087 2.79904 72.439 3.36828 72.5156C3.93751 72.5923 4.51689 72.5124 5.04415 72.2846L23.5365 64.3064L34.8157 90.4593C34.9797 90.8407 35.2172 91.1859 35.5148 91.4753C35.8123 91.7647 36.164 91.9926 36.5497 92.1459C36.9355 92.2992 37.3476 92.3749 37.7627 92.3687C38.1777 92.3625 38.5874 92.2746 38.9684 92.1098L64.4189 81.129C64.8003 80.9645 65.1457 80.7265 65.4351 80.4285C65.7246 80.1305 65.9525 79.7784 66.1057 79.3923C66.259 79.0061 66.3347 78.5936 66.3285 78.1782C66.3222 77.7628 66.2341 77.3528 66.0693 76.9715L54.7853 50.8185L73.8887 42.5708C74.4164 42.3442 74.8725 41.9781 75.2078 41.5119C75.5431 41.0457 75.7451 40.4969 75.7921 39.9246C75.8391 39.3522 75.7293 38.7779 75.4745 38.2632C75.2197 37.7485 74.8296 37.313 74.3459 37.0033Z" fill="#EEB1CA"/>
<path d="M37.7269 93C36.9867 92.9994 36.2629 92.7822 35.6447 92.3752C35.0265 91.9682 34.5409 91.3892 34.2478 90.7095L23.2092 65.1339L5.29431 72.8619C4.662 73.1363 3.96679 73.2329 3.28365 73.1413C2.60051 73.0496 1.95533 72.7733 1.41764 72.3421C0.879952 71.9108 0.470162 71.341 0.232421 70.6941C-0.00532059 70.0471 -0.062007 69.3475 0.0685078 68.6707L12.6085 3.08861C12.7236 2.47856 12.9868 1.90611 13.3748 1.42153C13.7629 0.936957 14.264 0.555086 14.8342 0.309444C15.4043 0.063802 16.0261 -0.0380867 16.6448 0.0127205C17.2636 0.0635276 17.8604 0.265477 18.3828 0.600837L74.6827 36.4739C75.2638 36.8434 75.7332 37.3643 76.0404 37.9807C76.3475 38.597 76.4808 39.2855 76.4259 39.9719C76.3709 40.6584 76.1299 41.3168 75.7286 41.8765C75.3274 42.4362 74.7811 42.8758 74.1485 43.1481L55.6225 51.1456L66.6563 76.726C67.0538 77.6487 67.0687 78.6915 66.6979 79.6253C66.3271 80.5591 65.6009 81.3076 64.6786 81.7063L39.2282 92.6872C38.7549 92.8946 38.2436 93.0011 37.7269 93ZM23.5364 63.6759C23.6595 63.6749 23.7801 63.7105 23.8829 63.7782C23.9858 63.8459 24.0661 63.9426 24.1139 64.0561L35.4027 90.2138C35.6692 90.8293 36.169 91.3138 36.7924 91.561C37.4159 91.8083 38.1119 91.7979 38.7278 91.5323L64.1685 80.5515C64.7852 80.2849 65.2709 79.7846 65.519 79.1602C65.7671 78.5359 65.7573 77.8387 65.4918 77.2216L54.203 51.0686C54.1704 50.9925 54.1531 50.9107 54.1522 50.8278C54.1513 50.745 54.1667 50.6628 54.1975 50.586C54.2283 50.5091 54.274 50.4391 54.332 50.3799C54.3899 50.3207 54.4589 50.2735 54.535 50.2409L73.6385 41.9933C74.0646 41.8166 74.4329 41.5242 74.7016 41.1492C74.9703 40.7742 75.1287 40.3315 75.159 39.8712C75.2002 39.4123 75.1138 38.951 74.9091 38.5383C74.7044 38.1256 74.3896 37.7775 73.9994 37.5326L17.6995 1.66427C17.3509 1.4415 16.953 1.30757 16.5407 1.2742C16.1283 1.24083 15.7141 1.30903 15.3342 1.47286C14.9543 1.63668 14.6204 1.89112 14.3617 2.2139C14.1029 2.53669 13.9272 2.91798 13.8499 3.3244L1.30518 68.9065C1.21856 69.3583 1.25672 69.8252 1.41553 70.2569C1.57433 70.6887 1.84778 71.069 2.20651 71.3569C2.56525 71.6449 2.99569 71.8297 3.45156 71.8914C3.90743 71.953 4.37148 71.8894 4.79385 71.7071L23.2669 63.724C23.3524 63.6893 23.4442 63.6729 23.5364 63.6759Z" fill="black"/>
<path d="M23.19 42.4072C23.2282 41.8818 23.4676 41.3914 23.8585 41.0382C24.2493 40.685 24.7614 40.4962 25.288 40.5113C27.0588 40.6797 29.662 42.5082 32.6743 42.6189C35.0803 42.7055 37.1109 40.9684 38.8913 40.877C39.518 40.8567 40.1307 41.0646 40.6156 41.4619C41.1006 41.8593 41.4249 42.4192 41.5283 43.0375C42.0961 47.5897 35.754 49.5626 30.5667 48.7301C25.3794 47.8976 22.9012 44.8324 23.19 42.4072Z" fill="#F06D41"/>
<path d="M29.9655 50.9242C29.0156 50.9135 28.0752 50.7325 27.1891 50.39C25.9503 49.9473 24.8545 49.1774 24.018 48.1621C23.2192 47.1372 22.9786 46.0496 23.3395 45.0969C23.7004 44.1441 24.605 43.4945 25.885 43.2587C27.1842 43.056 28.5141 43.2072 29.7346 43.6966C32.6217 44.7889 34.2915 47.1131 33.5841 48.9897C33.2232 49.9521 32.3234 50.5921 31.0434 50.8279C30.6881 50.8949 30.3271 50.9272 29.9655 50.9242ZM26.9629 44.4184C26.6773 44.4187 26.3922 44.4445 26.1112 44.4954C25.63 44.582 24.7879 44.837 24.5184 45.5444C24.2489 46.2518 24.7109 46.988 24.9996 47.3874C25.7095 48.1976 26.6068 48.822 27.6132 49.2062C28.6196 49.5903 29.7047 49.7225 30.7739 49.5912C31.2551 49.5046 32.102 49.2496 32.3715 48.5422C32.8142 47.3633 31.4091 45.6839 29.2534 44.8755C28.5233 44.5877 27.7475 44.4329 26.9629 44.4184Z" fill="black"/>
<path d="M32.9148 33.2307C32.808 33.2313 32.7028 33.2044 32.6093 33.1528C32.5158 33.1012 32.437 33.0264 32.3806 32.9357C32.3241 32.845 32.2919 32.7414 32.2868 32.6346C32.2818 32.5279 32.3042 32.4217 32.3519 32.3261C32.819 31.4209 33.5669 30.6916 34.4835 30.2473C35.4346 29.8987 36.4752 29.88 37.4381 30.1944C37.5208 30.2178 37.5977 30.2579 37.6644 30.3121C37.731 30.3664 37.7858 30.4337 37.8254 30.5099C37.8651 30.5861 37.8888 30.6696 37.895 30.7553C37.9012 30.841 37.8899 30.927 37.8616 31.0082C37.8334 31.0893 37.7889 31.1638 37.7308 31.2271C37.6727 31.2904 37.6022 31.3412 37.5238 31.3763C37.4454 31.4114 37.3606 31.4301 37.2747 31.4312C37.1888 31.4324 37.1036 31.4159 37.0243 31.3829C36.3557 31.1714 35.6367 31.1815 34.9744 31.4118C34.3362 31.7335 33.8147 32.2466 33.4826 32.8795C33.4304 32.9853 33.3495 33.0743 33.2491 33.1364C33.1487 33.1985 33.0329 33.2312 32.9148 33.2307Z" fill="black"/>
<path d="M23.955 36.6472C23.8581 36.6455 23.7628 36.6225 23.6759 36.5798C23.5273 36.5063 23.4137 36.3772 23.3597 36.2205C23.3057 36.0638 23.3155 35.8921 23.3872 35.7426C23.8555 34.8367 24.6053 34.1072 25.5237 33.6638C26.475 33.318 27.5141 33.2977 28.4782 33.6061C28.5587 33.6316 28.6332 33.6731 28.6973 33.728C28.7614 33.7829 28.8139 33.8501 28.8515 33.9257C28.8892 34.0013 28.9112 34.0836 28.9165 34.1679C28.9217 34.2522 28.9099 34.3366 28.8819 34.4163C28.8538 34.4959 28.8101 34.5691 28.7532 34.6315C28.6963 34.6939 28.6275 34.7442 28.5508 34.7795C28.4741 34.8148 28.3911 34.8343 28.3067 34.8369C28.2223 34.8395 28.1383 34.8251 28.0596 34.7946C27.3903 34.5881 26.6729 34.5982 26.0097 34.8235C25.3723 35.1485 24.8512 35.6629 24.5179 36.2959C24.4665 36.4014 24.3864 36.4903 24.2869 36.5524C24.1873 36.6145 24.0723 36.6474 23.955 36.6472Z" fill="black"/>
</svg>
