<svg width="160" height="95" viewBox="0 0 160 95" fill="none" xmlns="http://www.w3.org/2000/svg">
<rect width="160" height="95" rx="8" fill="#EEB1CA"/>
<path d="M103.37 36.3594H61.2196C59.0602 36.3594 57.3096 38.11 57.3096 40.2694V59.2194C57.3096 61.3788 59.0602 63.1294 61.2196 63.1294H103.37C105.529 63.1294 107.28 61.3788 107.28 59.2194V40.2694C107.28 38.11 105.529 36.3594 103.37 36.3594Z" fill="#F06D41"/>
<path d="M99.5 59.71H57.35C56.1954 59.7073 55.0889 59.2468 54.2734 58.4294C53.4579 57.6121 53 56.5046 53 55.35V36.35C53 35.1963 53.4583 34.0898 54.274 33.274C55.0898 32.4583 56.1963 32 57.35 32H99.5C100.654 32 101.76 32.4583 102.576 33.274C103.392 34.0898 103.85 35.1963 103.85 36.35V55.35C103.85 56.5046 103.392 57.6121 102.577 58.4294C101.761 59.2468 100.655 59.7073 99.5 59.71ZM57.35 32.9299C56.4314 32.9326 55.5514 33.2994 54.9028 33.9498C54.2542 34.6003 53.89 35.4815 53.89 36.4V55.4C53.89 56.3186 54.2542 57.1996 54.9028 57.8501C55.5514 58.5006 56.4314 58.8673 57.35 58.87H99.5C100.419 58.8674 101.301 58.5009 101.951 57.8507C102.601 57.2005 102.967 56.3195 102.97 55.4V36.4C102.967 35.4805 102.601 34.5994 101.951 33.9492C101.301 33.299 100.419 32.9326 99.5 32.9299H57.35Z" fill="black"/>
<path d="M82.2902 42.4414V49.3114L74.8701 45.8815L82.2902 42.4414Z" fill="black"/>
</svg>
