<svg width="98" height="98" viewBox="0 0 98 98" fill="none" xmlns="http://www.w3.org/2000/svg">
<path d="M49 98C76.062 98 98 76.062 98 49C98 21.938 76.062 0 49 0C21.938 0 0 21.938 0 49C0 76.062 21.938 98 49 98Z" fill="#AC7EF4"/>
<path d="M29.5083 35.6108L37.5493 51.7287C37.5493 51.7287 35.8981 52.5902 35.6109 53.5954C35.0006 55.8569 34.534 60.7749 36.1852 62.3902C39.2724 65.3697 44.6211 66.9851 47.4211 67.9184C48.2827 68.2056 49.1442 68.5287 49.5391 69.3184L50.5442 71.3287C50.7237 71.6877 51.0468 71.9749 51.4417 72.1185C51.8365 72.262 52.2673 72.2261 52.6622 72.0467L65.9442 65.4056C66.3032 65.2261 66.5904 64.9031 66.734 64.5082C66.8775 64.1133 66.8416 63.6825 66.6622 63.2877L64.7596 59.4825C64.1134 58.1902 63.934 56.7184 64.2211 55.3184C64.7596 52.7338 64.4006 50.0415 63.216 47.6723L59.4468 40.1697C59.1237 39.4159 58.5134 38.8415 57.7596 38.5902C57.0058 38.339 56.1442 38.3749 55.4263 38.7697H55.3545C53.9186 39.5236 53.2724 41.1031 53.8827 42.3236L52.8058 40.1697C52.1955 38.9492 50.5442 38.5184 49.1442 39.2364H49.0724C47.6006 40.0261 46.9186 41.6415 47.5647 42.8979L46.5237 40.8159C46.2006 40.2056 45.6622 39.7749 45.016 39.5236C44.3699 39.3082 43.6519 39.3082 43.0416 39.5954C41.3545 40.2415 40.5288 42.0005 41.2109 43.3646L35.7904 32.5236C35.216 31.4108 34.1032 30.6569 32.8468 30.5851C31.5904 30.5133 30.4058 31.1236 29.6878 32.1646C29.0058 33.2056 28.8981 34.5697 29.4724 35.6825L29.5083 35.6108Z" fill="#F7C92E"/>
<path d="M53.9901 68.2413C53.7389 68.2413 53.4876 68.2054 53.2363 68.1336C52.6619 67.9541 52.1594 67.5234 51.8722 66.949L50.8671 64.9387C50.6158 64.4003 49.9696 64.1849 49.1799 63.8977L48.6055 63.7182C45.626 62.749 40.6722 61.1336 37.6209 58.2259C35.6107 56.2875 36.2209 50.9746 36.8312 48.6772C37.0825 47.8157 37.8722 47.1336 38.5183 46.7028L30.8004 31.231C30.1184 29.8669 30.226 28.2157 31.0517 26.9593C31.8773 25.6669 33.385 24.949 34.8927 25.0567C36.4004 25.1644 37.8004 26.0618 38.4825 27.4259L42.6825 35.8618C43.1491 35.0721 43.8671 34.4618 44.7645 34.1387C45.5543 33.8157 46.4517 33.7798 47.2773 34.0669C47.9953 34.3182 48.6055 34.7849 49.0363 35.431C49.3953 34.7849 50.0055 34.2105 50.7235 33.8516C51.6568 33.3849 52.5901 33.2772 53.4876 33.4926C54.3132 33.708 54.9953 34.2105 55.426 34.8926C55.785 34.2823 56.3594 33.7439 57.0414 33.3849C58.0107 32.8823 59.0517 32.8105 60.0209 33.1336C60.9901 33.4567 61.7799 34.2105 62.1748 35.1439L65.9081 42.6105C67.1645 45.1234 67.5235 47.9951 66.9491 50.7593C66.6978 51.9798 66.8414 53.308 67.4158 54.4208L69.3184 58.2259C69.6055 58.7644 69.6414 59.4464 69.4619 60.0208C69.2825 60.5951 68.8517 61.0977 68.2773 61.3849L54.9953 68.0259C54.6722 68.2054 54.3132 68.2772 53.9542 68.2772L53.9901 68.2413ZM34.6773 26.5644C33.744 26.5644 32.8825 27.031 32.3799 27.7849C31.8414 28.6105 31.7696 29.6516 32.2004 30.5131L40.6004 47.3131L39.9184 47.6721C39.3799 47.9593 38.4825 48.6054 38.3748 49.0362C37.6927 51.5131 37.5132 55.8926 38.7337 57.0772C41.4978 59.7336 46.2722 61.2772 49.1081 62.2105L49.6825 62.39C50.5081 62.6772 51.6927 63.0362 52.2312 64.1849L53.2363 66.1952C53.344 66.3746 53.4876 66.5182 53.703 66.59C53.9184 66.6618 54.1337 66.6259 54.3132 66.5541L67.5953 59.9131C67.7748 59.8054 67.9184 59.6618 67.9902 59.4464C68.0619 59.231 68.026 59.0157 67.9543 58.8362L66.0517 55.031C65.3337 53.5951 65.1543 51.9439 65.4773 50.3644C65.9799 47.9593 65.6568 45.4105 64.544 43.2208L60.7748 35.7182C60.5235 35.1439 60.0568 34.7131 59.5184 34.5336C58.944 34.3541 58.3337 34.39 57.8312 34.6772C56.7184 35.2516 56.2158 36.3644 56.6107 37.19L55.2466 37.8721L54.1696 35.7182C53.9901 35.3234 53.5953 35.0362 53.1286 34.9285C52.626 34.7849 52.0517 34.8567 51.5132 35.108C50.3645 35.6823 49.826 36.8669 50.2568 37.7285L48.8927 38.4105L47.8517 36.3285C47.6363 35.9336 47.2414 35.6105 46.7748 35.431C46.3081 35.2516 45.8055 35.2875 45.3389 35.4669C44.6209 35.7182 44.1184 36.2208 43.8671 36.831C43.6876 37.2977 43.6876 37.7644 43.8671 38.1593L42.503 38.8413L37.0825 28.0003C36.6517 27.1387 35.7542 26.5285 34.785 26.4926C34.7132 26.4926 34.6773 26.4926 34.6055 26.4926L34.6773 26.5644Z" fill="black"/>
<path d="M56.6464 37.2154L55.2657 37.9056L59.0537 45.4833L60.4344 44.7931L56.6464 37.2154Z" fill="black"/>
<path d="M50.3065 37.7736L48.9258 38.4638L52.7138 46.0415L54.0945 45.3514L50.3065 37.7736Z" fill="black"/>
<path d="M43.9505 38.2643L42.5698 38.9545L46.3578 46.5323L47.7385 45.8421L43.9505 38.2643Z" fill="black"/>
</svg>
