<svg width="93" height="93" viewBox="0 0 93 93" fill="none" xmlns="http://www.w3.org/2000/svg">
<path d="M81.7128 0H11.2872C5.05345 0 0 5.05345 0 11.2872V81.7128C0 87.9466 5.05345 93 11.2872 93H81.7128C87.9466 93 93 87.9466 93 81.7128V11.2872C93 5.05345 87.9466 0 81.7128 0Z" fill="#AC7EF4"/>
<path d="M75.1271 84.5145C74.7053 84.5159 74.2839 84.4891 73.8656 84.4342L16.6123 77.2811C14.1516 76.9706 11.8885 75.7734 10.2473 73.9138C8.606 72.0543 7.69924 69.66 7.6969 67.1798V25.8107C7.70039 23.3313 8.60767 20.9382 10.2488 19.0796C11.89 17.221 14.1524 16.0245 16.6123 15.7141L73.8656 8.56103C75.2968 8.38139 76.7498 8.50833 78.1282 8.93341C79.5065 9.35849 80.7787 10.072 81.8601 11.0265C82.9415 11.981 83.8074 13.1547 84.4004 14.4696C84.9934 15.7845 85.2998 17.2105 85.2993 18.6529V74.3423C85.2993 77.0402 84.2276 79.6275 82.3199 81.5351C80.4123 83.4428 77.8249 84.5145 75.1271 84.5145ZM75.1271 10.0587C74.7716 10.0588 74.4165 10.0825 74.0641 10.1296L16.806 17.2827C14.7326 17.5444 12.8254 18.5517 11.4404 20.1167C10.0554 21.6817 9.28731 23.6973 9.27966 25.7871V67.1798C9.28158 69.2736 10.047 71.295 11.4326 72.8649C12.8181 74.4348 14.7286 75.4456 16.806 75.7077L74.0641 82.8656C75.2729 83.0155 76.4998 82.9069 77.6635 82.5469C78.8272 82.187 79.9011 81.5838 80.8142 80.7776C81.7272 79.9713 82.4586 78.9802 82.9597 77.87C83.4609 76.7597 83.7205 75.5557 83.7212 74.3376V18.6529C83.72 16.374 82.8141 14.1887 81.2027 12.5773C79.5913 10.9658 77.406 10.06 75.1271 10.0587Z" fill="black"/>
<path d="M31.6377 45.7636C31.5288 45.7628 31.4219 45.7344 31.327 45.681C31.2321 45.6275 31.1523 45.5508 31.0952 45.4581C31.0381 45.3653 31.0056 45.2596 31.0007 45.1508C30.9957 45.042 31.0185 44.9337 31.0669 44.8362L33.3104 40.3572C33.3639 40.2541 33.4446 40.1677 33.5439 40.1074C33.6431 40.0471 33.757 40.0152 33.8732 40.0152C33.9893 40.0152 34.1032 40.0471 34.2025 40.1074C34.3017 40.1677 34.3825 40.2541 34.436 40.3572L36.9252 44.8362C36.967 44.9087 36.9939 44.9889 37.0041 45.0721C37.0144 45.1552 37.0079 45.2395 36.985 45.3201C36.9621 45.4007 36.9232 45.4758 36.8707 45.5411C36.8182 45.6064 36.7532 45.6605 36.6795 45.7002C36.5312 45.7829 36.3562 45.8035 36.1927 45.7574C36.0293 45.7113 35.8907 45.6024 35.8074 45.4545L33.9128 42.0378L32.2164 45.4307C32.1584 45.5328 32.0741 45.6175 31.9723 45.676C31.8706 45.7346 31.7551 45.7648 31.6377 45.7636Z" fill="black"/>
<path d="M58.5429 45.7633C58.4433 45.7632 58.3454 45.7387 58.2575 45.692C58.1822 45.655 58.115 45.6033 58.0598 45.5401C58.0046 45.4769 57.9625 45.4033 57.9359 45.3236C57.9094 45.244 57.8988 45.1598 57.9051 45.0761C57.9113 44.9924 57.9341 44.9108 57.9721 44.8359L60.2076 40.3569C60.2612 40.2527 60.3416 40.1648 60.4405 40.102C60.5395 40.0393 60.6534 40.0042 60.7705 40.0002C60.8872 39.997 61.0024 40.0265 61.1033 40.0853C61.2041 40.1441 61.2866 40.2299 61.3412 40.3331L63.8304 44.8121C63.8709 44.8854 63.8963 44.9661 63.9054 45.0493C63.9146 45.1325 63.9072 45.2167 63.8836 45.297C63.86 45.3773 63.8207 45.4522 63.768 45.5173C63.7154 45.5823 63.6504 45.6363 63.5767 45.6762C63.5041 45.718 63.4239 45.7449 63.3408 45.7551C63.2577 45.7654 63.1733 45.7589 63.0928 45.736C63.0122 45.713 62.937 45.6741 62.8717 45.6217C62.8065 45.5692 62.7524 45.5042 62.7127 45.4305L60.8101 42.0137L59.1136 45.4067C59.0601 45.5125 58.9786 45.6018 58.878 45.6646C58.7774 45.7275 58.6615 45.7616 58.5429 45.7633Z" fill="black"/>
<path d="M55.8004 52.3018H39.0895C38.9997 52.3118 38.9089 52.3029 38.8228 52.2754C38.7368 52.2479 38.6575 52.2025 38.5902 52.1422C38.5229 52.082 38.469 52.0083 38.4322 51.9259C38.3953 51.8434 38.3762 51.754 38.3762 51.6637C38.3762 51.5734 38.3953 51.484 38.4322 51.4016C38.469 51.3191 38.5229 51.2453 38.5902 51.1851C38.6575 51.1249 38.7368 51.0795 38.8228 51.052C38.9089 51.0245 38.9997 51.0155 39.0895 51.0255H55.8004C55.9574 51.043 56.1024 51.1179 56.2077 51.2356C56.3131 51.3533 56.3713 51.5057 56.3713 51.6637C56.3713 51.8217 56.3131 51.9741 56.2077 52.0918C56.1024 52.2095 55.9574 52.2843 55.8004 52.3018Z" fill="black"/>
</svg>
