<svg width="96" height="95" viewBox="0 0 96 95" fill="none" xmlns="http://www.w3.org/2000/svg">
<path d="M83.5088 0H11.5887C5.2209 0 0.0587158 5.16213 0.0587158 11.53V83.45C0.0587158 89.8178 5.2209 94.98 11.5887 94.98H83.5088C89.8766 94.98 95.0388 89.8178 95.0388 83.45V11.53C95.0388 5.16213 89.8766 0 83.5088 0Z" fill="#AC7EF4"/>
<path d="M48 80C41.2754 80 34.7019 78.0353 29.1106 74.3543C23.5194 70.6732 19.1615 65.4412 16.5881 59.3199C14.0147 53.1986 13.3414 46.4629 14.6533 39.9645C15.9652 33.4661 19.2034 27.497 23.9584 22.8119C28.7134 18.1269 34.7716 14.9363 41.367 13.6437C47.9623 12.3511 54.7986 13.0145 61.0113 15.5501C67.2239 18.0856 72.534 22.3794 76.27 27.8884C80.006 33.3975 82 39.8743 82 46.5C82 55.3848 78.4179 63.9056 72.0417 70.1881C65.6655 76.4705 57.0174 80 48 80ZM48 14.3694C41.5442 14.3683 35.233 16.2534 29.8646 19.7865C24.4962 23.3196 20.3117 28.3419 17.8404 34.2182C15.369 40.0946 14.7217 46.5611 15.9805 52.7999C17.2392 59.0387 20.3474 64.7696 24.912 69.2679C29.4765 73.7661 35.2924 76.8297 41.6241 78.071C47.9558 79.3124 54.5189 78.6758 60.4834 76.2419C66.448 73.8079 71.546 69.6859 75.1328 64.3971C78.7196 59.1083 80.6341 52.8903 80.6341 46.5294C80.6246 38.004 77.1835 29.8302 71.0657 23.8012C64.9478 17.7723 56.6527 14.3803 48 14.3694Z" fill="black"/>
<path d="M34.096 46C33.9253 46.001 33.7568 45.9592 33.6048 45.8781C33.3456 45.7409 33.1486 45.5027 33.0567 45.2152C32.9648 44.9277 32.9852 44.6139 33.1137 44.342L36.3415 37.637C36.4299 37.4495 36.566 37.291 36.735 37.1787C36.904 37.0664 37.0993 37.0047 37.2997 37.0003C37.5 36.9958 37.6977 37.0489 37.8711 37.1537C38.0445 37.2584 38.1869 37.4108 38.2828 37.5943L41.8673 44.2993C42.0054 44.565 42.0372 44.8768 41.9558 45.1668C41.8744 45.4569 41.6865 45.7017 41.4328 45.848C41.1791 45.9942 40.8804 46.0302 40.6014 45.9479C40.3225 45.8656 40.086 45.6718 39.9435 45.4087L37.3764 40.5872L35.0784 45.366C34.9883 45.5572 34.8483 45.7181 34.6746 45.8303C34.5009 45.9424 34.3003 46.0012 34.096 46Z" fill="black"/>
<path d="M56.2264 46C56.036 46.001 55.8482 45.9592 55.6788 45.8781C55.5344 45.8114 55.4057 45.7185 55.3 45.605C55.1942 45.4914 55.1135 45.3595 55.0626 45.2167C55.0116 45.0738 54.9915 44.923 55.0033 44.7728C55.015 44.6227 55.0585 44.4762 55.1312 44.3418L58.7234 37.6358C58.8231 37.4485 58.9756 37.2903 59.1645 37.1783C59.3534 37.0662 59.5715 37.0046 59.7951 37.0003C60.0188 36.9959 60.2395 37.0488 60.4332 37.1533C60.627 37.2578 60.7865 37.4099 60.8944 37.5931L64.8844 44.2991C65.016 44.562 65.036 44.8619 64.9404 45.1381C64.8447 45.4143 64.6405 45.6463 64.369 45.7871C64.0975 45.928 63.779 45.9673 63.4778 45.8971C63.1765 45.8268 62.9149 45.6522 62.746 45.4087L59.8774 40.5864L57.3217 45.3659C57.2207 45.5567 57.0645 45.7172 56.871 45.8293C56.6774 45.9413 56.4541 46.0005 56.2264 46Z" fill="black"/>
<path d="M48.5 54C45.4646 54 43 51.0843 43 47.5C43 43.9156 45.4646 41 48.5 41C51.5355 41 54 43.9156 54 47.5C54 51.0843 51.5129 54 48.5 54ZM48.5 43.2651C46.6403 43.2651 45.1085 45.1687 45.1085 47.4819C45.1085 49.7952 46.6234 51.6988 48.5 51.6988C50.3767 51.6988 51.8916 49.8012 51.8916 47.4819C51.8916 45.1627 50.3823 43.2651 48.5 43.2651Z" fill="black"/>
</svg>
