<svg width="96" height="96" viewBox="0 0 96 96" fill="none" xmlns="http://www.w3.org/2000/svg">
<path d="M84.3448 0H11.6554C5.21833 0 0 5.21826 0 11.6553V84.3447C0 90.7818 5.21833 96 11.6554 96H84.3448C90.7818 96 96 90.7818 96 84.3447V11.6553C96 5.21826 90.7818 0 84.3448 0Z" fill="#AC7EF4"/>
<path d="M48.5045 84.0208C41.4725 84.027 34.5967 81.9474 28.7469 78.0452C22.897 74.1429 18.3359 68.5933 15.6407 62.0984C12.9454 55.6034 12.2369 48.4551 13.605 41.5575C14.9731 34.6599 18.3562 28.323 23.3264 23.3484C28.2966 18.3739 34.6305 14.9853 41.5269 13.6111C48.4233 12.237 55.5723 12.9391 62.0696 15.6287C68.5668 18.3183 74.1204 22.8745 78.0278 28.7209C81.9352 34.5673 84.0208 41.4413 84.0208 48.4733C84.0208 57.8957 80.2799 66.9326 73.6202 73.5982C66.9605 80.2637 57.9269 84.0126 48.5045 84.0208ZM48.5045 14.3788C41.7548 14.3776 35.1564 16.378 29.5436 20.127C23.9309 23.8761 19.5559 29.2053 16.9721 35.4408C14.3883 41.6764 13.7116 48.5381 15.0276 55.1582C16.3436 61.7784 19.5933 67.8595 24.3656 72.6327C29.1379 77.4059 35.2185 80.6567 41.8384 81.9739C48.4583 83.2912 55.3201 82.6158 61.5561 80.0331C67.7921 77.4503 73.1222 73.0764 76.8722 67.4643C80.6223 61.8523 82.6239 55.2542 82.6239 48.5045C82.614 39.4579 79.0163 30.7846 72.62 24.3872C66.2237 17.9897 57.5511 14.3904 48.5045 14.3788Z" fill="black"/>
<path d="M32.6377 47.7636C32.5288 47.7628 32.4219 47.7344 32.327 47.681C32.2321 47.6275 32.1523 47.5508 32.0952 47.4581C32.0381 47.3653 32.0056 47.2596 32.0007 47.1508C31.9957 47.042 32.0185 46.9337 32.0669 46.8362L34.3104 42.3572C34.3639 42.2541 34.4446 42.1677 34.5439 42.1074C34.6431 42.0471 34.757 42.0152 34.8732 42.0152C34.9893 42.0152 35.1032 42.0471 35.2025 42.1074C35.3017 42.1677 35.3825 42.2541 35.436 42.3572L37.9252 46.8362C37.967 46.9087 37.9939 46.9889 38.0041 47.0721C38.0144 47.1552 38.0079 47.2395 37.985 47.3201C37.9621 47.4007 37.9232 47.4758 37.8707 47.5411C37.8182 47.6064 37.7532 47.6605 37.6795 47.7002C37.5312 47.7829 37.3562 47.8035 37.1927 47.7574C37.0293 47.7113 36.8907 47.6024 36.8074 47.4545L34.9128 44.0378L33.2164 47.4307C33.1584 47.5328 33.0741 47.6175 32.9723 47.676C32.8706 47.7346 32.7551 47.7648 32.6377 47.7636Z" fill="black"/>
<path d="M59.5429 47.7633C59.4433 47.7632 59.3454 47.7387 59.2575 47.692C59.1822 47.655 59.115 47.6033 59.0598 47.5401C59.0046 47.4769 58.9625 47.4033 58.9359 47.3236C58.9094 47.244 58.8988 47.1598 58.9051 47.0761C58.9113 46.9924 58.9341 46.9108 58.9721 46.8359L61.2076 42.3569C61.2612 42.2527 61.3416 42.1648 61.4405 42.102C61.5395 42.0393 61.6534 42.0042 61.7705 42.0002C61.8872 41.997 62.0024 42.0265 62.1033 42.0853C62.2041 42.1441 62.2866 42.2299 62.3412 42.3331L64.8304 46.8121C64.8709 46.8854 64.8963 46.9661 64.9054 47.0493C64.9146 47.1325 64.9072 47.2167 64.8836 47.297C64.86 47.3773 64.8207 47.4522 64.768 47.5173C64.7154 47.5823 64.6504 47.6363 64.5767 47.6762C64.5041 47.718 64.4239 47.7449 64.3408 47.7551C64.2577 47.7654 64.1733 47.7589 64.0928 47.736C64.0122 47.713 63.937 47.6741 63.8717 47.6217C63.8065 47.5692 63.7524 47.5042 63.7127 47.4305L61.8101 44.0137L60.1136 47.4067C60.0601 47.5125 59.9786 47.6018 59.878 47.6646C59.7774 47.7275 59.6615 47.7616 59.5429 47.7633Z" fill="black"/>
<path d="M56.8004 54.3018H40.0895C39.9997 54.3118 39.9089 54.3029 39.8228 54.2754C39.7368 54.2479 39.6575 54.2025 39.5902 54.1422C39.5229 54.082 39.469 54.0083 39.4322 53.9259C39.3953 53.8434 39.3762 53.754 39.3762 53.6637C39.3762 53.5734 39.3953 53.484 39.4322 53.4016C39.469 53.3191 39.5229 53.2453 39.5902 53.1851C39.6575 53.1249 39.7368 53.0795 39.8228 53.052C39.9089 53.0245 39.9997 53.0155 40.0895 53.0255H56.8004C56.9574 53.043 57.1024 53.1179 57.2077 53.2356C57.3131 53.3533 57.3713 53.5057 57.3713 53.6637C57.3713 53.8217 57.3131 53.9741 57.2077 54.0918C57.1024 54.2095 56.9574 54.2843 56.8004 54.3018Z" fill="black"/>
</svg>
