<svg width="108" height="96" viewBox="0 0 108 96" fill="none" xmlns="http://www.w3.org/2000/svg">
<path d="M84.2819 95.561L82.6187 95.6312C85.1022 95.3267 103.351 86.374 105.008 84.5303C106.664 82.6866 107.579 80.3117 107.579 77.852V33.3471C107.578 30.8872 106.663 28.5122 105.007 26.6679C103.35 24.8236 86.7654 15.9449 84.2819 15.6382C82.8372 15.4603 81.3704 15.5865 79.9792 16.0083C78.5879 16.4302 77.3038 17.138 76.2122 18.0849C75.1205 19.0317 74.2463 20.1959 73.6474 21.5003C73.0486 22.8046 72.7389 24.2192 72.7388 25.6501V85.5439C72.739 86.975 73.0487 88.3898 73.6475 89.6943C74.2463 90.9988 75.1204 92.1633 76.212 93.1106C77.3035 94.0579 78.5875 94.7662 79.9788 95.1886C81.3701 95.6111 82.8369 95.738 84.2819 95.561Z" fill="#3E8528"/>
<path d="M78.876 95.9213L16.2165 88.0896C13.733 87.7798 11.4483 86.5736 9.79161 84.6976C8.13497 82.8217 7.2206 80.4052 7.2204 77.9024V32.6186C7.22159 30.1155 8.13611 27.699 9.79245 25.8224C11.4488 23.9458 13.733 22.7382 16.2165 22.4261L78.876 14.5996C80.3207 14.4187 81.7874 14.547 83.1787 14.9763C84.57 15.4055 85.854 16.1257 86.9457 17.0892C88.0373 18.0526 88.9116 19.2372 89.5104 20.5643C90.1092 21.8915 90.4189 23.3308 90.419 24.7868V85.7289C90.4188 87.1851 90.1091 88.6246 89.5103 89.952C88.9115 91.2793 88.0374 92.4642 86.9459 93.4281C85.8543 94.3919 84.5703 95.1126 83.1791 95.5425C81.7878 95.9723 80.321 96.1015 78.876 95.9213Z" fill="#33B533"/>
<path d="M54.2286 11.3998C52.087 5.34092 46.3087 1 39.5165 1C31.4275 1 24.7765 7.15671 23.9938 15.0398" stroke="black" stroke-width="2"/>
<path d="M36.7092 13.4798C38.1545 6.35932 44.4498 1 51.9968 1C58.1715 1 63.5083 4.58747 66.0366 9.79181" stroke="black" stroke-width="2"/>
<path d="M73.3685 89.6488C72.9156 89.6503 72.4632 89.6215 72.0143 89.5626L10.5511 81.8835C7.90939 81.5502 5.47991 80.265 3.71798 78.2687C1.95605 76.2724 0.982614 73.702 0.980103 71.0394V26.6285C0.983848 23.9667 1.95784 21.3977 3.71966 19.4024C5.48147 17.4072 7.91025 16.1227 10.5511 15.7895L72.0143 8.11042C73.5507 7.91759 75.1105 8.05386 76.5902 8.51019C78.0699 8.96653 79.4356 9.73248 80.5965 10.7572C81.7575 11.7819 82.6871 13.0418 83.3237 14.4534C83.9602 15.865 84.2892 17.3959 84.2886 18.9443V78.7287C84.2886 81.6249 83.1381 84.4024 81.0902 86.4504C79.0423 88.4983 76.2647 89.6488 73.3685 89.6488ZM73.3685 9.71827C72.9868 9.71834 72.6056 9.74376 72.2273 9.79435L10.759 17.4734C8.53318 17.7543 6.48567 18.8358 4.99882 20.5158C3.51198 22.1959 2.68746 24.3597 2.67924 26.6031V71.0394C2.6813 73.2873 3.50304 75.4572 4.99046 77.1426C6.47787 78.8279 8.52886 79.913 10.759 80.1945L72.2273 87.8786C73.525 88.0396 74.8421 87.923 76.0914 87.5365C77.3406 87.1501 78.4935 86.5026 79.4737 85.6371C80.4539 84.7715 81.239 83.7075 81.777 82.5157C82.3151 81.3238 82.5937 80.0312 82.5946 78.7236V18.9443C82.5932 16.4978 81.6207 14.1519 79.8908 12.422C78.1609 10.6921 75.815 9.71961 73.3685 9.71827Z" fill="black"/>
<path d="M40.3869 74.8133C37.0861 74.8133 34.1198 74.2681 31.488 73.1778C28.9014 72.0875 26.8732 70.5175 25.4035 68.4678C23.9338 66.418 23.2224 63.9975 23.2692 61.2064H33.443C33.5168 63.0817 34.1461 64.5645 35.3309 65.6548C36.561 66.7451 38.2613 67.2902 40.4317 67.2902C42.6473 67.2902 44.4047 66.7887 45.7038 65.7856C47.0044 64.7389 47.6821 63.387 47.7368 61.7297C47.7814 60.3778 47.3885 59.2657 46.5582 58.3934C45.7279 57.5212 44.665 56.8452 43.3695 56.3655C42.1207 55.8421 40.376 55.2752 38.1353 54.6646C35.0894 53.7924 32.6079 52.9419 30.6909 52.1133C28.8206 51.2411 27.2127 49.9545 25.8671 48.2537C24.5681 46.5092 23.9662 44.1978 24.0611 41.3194C24.1504 38.6154 24.9289 36.2604 26.3969 34.2542C27.8648 32.2481 29.8821 30.7217 32.4487 29.675C35.0168 28.5847 37.9287 28.0396 41.1843 28.0396C46.0677 28.0396 49.986 29.1953 52.9392 31.5067C55.9391 33.7745 57.5297 36.9582 57.7109 41.0577H47.2659C47.2273 39.4877 46.5689 38.2011 45.2907 37.198C44.0592 36.1514 42.3808 35.628 40.2556 35.628C38.4017 35.628 36.8945 36.0859 35.7339 37.0018C34.6184 37.9176 34.0319 39.2478 33.9744 40.9923C33.9341 42.2134 34.3072 43.2383 35.0938 44.0669C35.927 44.8519 36.9454 45.5061 38.1489 46.0294C39.3992 46.5092 41.1439 47.0761 43.3832 47.7303C46.4291 48.6025 48.9099 49.4748 50.8254 50.347C52.7409 51.2193 54.3708 52.5276 55.7149 54.2721C57.0591 56.0166 57.6844 58.3062 57.5908 61.141C57.5102 63.5832 56.7797 65.851 55.3994 67.9444C54.019 70.0378 52.0419 71.7168 49.468 72.9816C46.8956 74.2027 43.8686 74.8133 40.3869 74.8133Z" fill="black"/>
</svg>
