<svg width="136" height="95" viewBox="0 0 136 95" fill="none" xmlns="http://www.w3.org/2000/svg">
<rect width="136" height="95" rx="8" fill="#33B533"/>
<mask id="path-2-outside-1_90_2" maskUnits="userSpaceOnUse" x="21" y="10" width="90" height="77" fill="black">
<rect fill="white" x="21" y="10" width="90" height="77"/>
<path fill-rule="evenodd" clip-rule="evenodd" d="M56.7003 12L65.9919 28.0935L75.2835 12H106.984L65.9919 83L25 12H56.7003Z"/>
</mask>
<path fill-rule="evenodd" clip-rule="evenodd" d="M56.7003 12L65.9919 28.0935L75.2835 12H106.984L65.9919 83L25 12H56.7003Z" fill="#33B533"/>
<path d="M65.9919 28.0935L64.2598 29.0935L65.9919 32.0935L67.7239 29.0935L65.9919 28.0935ZM56.7003 12L58.4323 11L57.855 10H56.7003V12ZM75.2835 12V10H74.1288L73.5514 11L75.2835 12ZM106.984 12L108.716 13L110.448 10H106.984V12ZM65.9919 83L64.2598 84L65.9919 87L67.7239 84L65.9919 83ZM25 12V10H21.5359L23.2679 13L25 12ZM67.7239 27.0935L58.4323 11L54.9682 13L64.2598 29.0935L67.7239 27.0935ZM73.5514 11L64.2598 27.0935L67.7239 29.0935L77.0155 13L73.5514 11ZM75.2835 14H106.984V10H75.2835V14ZM105.252 11L64.2598 82L67.7239 84L108.716 13L105.252 11ZM67.7239 82L26.7321 11L23.2679 13L64.2598 84L67.7239 82ZM25 14H56.7003V10H25V14Z" fill="black" mask="url(#path-2-outside-1_90_2)"/>
</svg>
