<svg width="145" height="162" viewBox="0 0 145 162" fill="none" xmlns="http://www.w3.org/2000/svg">
<path d="M109.901 28.506C109.992 28.1758 110.058 27.9198 110.091 27.7465C110.465 26.0745 110.372 24.3319 109.822 22.7093C109.272 21.0867 108.286 19.6467 106.972 18.547C105.658 17.4472 104.068 16.7301 102.373 16.4741C100.679 16.218 98.9476 16.433 97.3675 17.0954C97.5359 13.3457 96.3318 9.66312 93.9806 6.73718C91.6294 3.81125 88.2924 1.84255 84.5943 1.19971C80.8962 0.556873 77.0906 1.28395 73.89 3.24481C70.6893 5.20567 68.3131 8.26589 67.2062 11.8525C66.114 13.6314 64.6967 15.1887 63.0283 16.4432C61.7573 17.5128 60.3392 18.3943 58.8175 19.0605C42.5213 22.2002 27.8331 30.9323 17.2897 43.7487C6.74629 56.5652 1.00967 72.6612 1.07055 89.257C1.13142 105.853 6.98596 121.906 17.6231 134.645C28.2602 147.384 43.0121 156.008 59.3309 159.028C75.6497 162.048 92.5109 159.274 107.002 151.186C121.494 143.098 132.706 130.203 138.702 114.728C144.698 99.2529 145.102 82.1699 139.843 66.4291C134.585 50.6883 123.994 37.278 109.901 28.5143V28.506Z" fill="#F6AF3A"/>
<path d="M72.3 161.297C54.3259 161.298 36.9958 154.604 23.6902 142.52C10.3845 130.435 2.05756 113.828 0.333501 95.9367C-1.39056 78.0454 3.61189 60.1535 14.3652 45.7509C25.1185 31.3482 40.8513 21.4678 58.495 18.0368C59.8809 17.4079 61.1752 16.5941 62.3426 15.6176C63.8675 14.4612 65.1758 13.044 66.2067 11.4315C67.3935 7.76194 69.8274 4.62354 73.0861 2.56068C76.3448 0.497819 80.2227 -0.35937 84.0473 0.137824C87.8719 0.635017 91.4017 2.45525 94.0247 5.28272C96.6477 8.1102 98.1982 11.7666 98.4074 15.6176C100.131 15.1907 101.936 15.2108 103.65 15.6761C105.364 16.1414 106.931 17.0365 108.203 18.2766C109.474 19.5168 110.408 21.0609 110.916 22.7629C111.424 24.4648 111.49 26.2683 111.106 28.0025C121.365 34.5279 129.81 43.5378 135.658 54.1969C141.507 64.856 144.569 76.8193 144.562 88.9775C144.566 108.149 136.956 126.538 123.405 140.1C109.854 153.661 91.4717 161.286 72.3 161.297ZM81.9933 2.02726C78.9206 2.03174 75.9296 3.01673 73.4556 4.83885C70.9815 6.66097 69.1536 9.22514 68.2378 12.1581C68.2203 12.2267 68.1954 12.2931 68.1635 12.3563C67.0031 14.2715 65.4935 15.952 63.7132 17.3102C62.3586 18.4398 60.8522 19.3736 59.2381 20.0844L59.0234 20.1505C42.9742 23.2425 28.5087 31.8423 18.1253 44.4646C7.74195 57.0868 2.09263 72.939 2.15309 89.2831C2.21354 105.627 7.98 121.437 18.4565 133.982C28.933 146.528 43.4616 155.02 59.5333 157.993C75.6049 160.966 92.2102 158.234 106.481 150.267C120.752 142.3 131.793 129.599 137.697 114.358C143.6 99.1175 143.996 82.2934 138.816 66.7918C133.635 51.2903 123.203 38.0846 109.323 29.4557C109.125 29.3284 108.973 29.1409 108.89 28.921C108.807 28.701 108.796 28.4601 108.86 28.2337C108.959 27.8952 109.017 27.664 109.042 27.5484C109.375 26.0684 109.294 24.5253 108.807 23.0884C108.321 21.6515 107.448 20.3764 106.284 19.403C105.121 18.4297 103.711 17.7958 102.211 17.5708C100.711 17.3458 99.1778 17.5384 97.7799 18.1276C97.6117 18.1973 97.4286 18.2234 97.2477 18.2035C97.0667 18.1836 96.8937 18.1183 96.7447 18.0138C96.5956 17.9092 96.4754 17.7687 96.3951 17.6053C96.3149 17.4419 96.2771 17.2609 96.2854 17.0791C96.4521 13.7006 95.4164 10.3724 93.3623 7.68497C91.3082 4.99754 88.3684 3.1247 85.0647 2.39881C84.0571 2.16552 83.0274 2.04095 81.9933 2.02726Z" fill="#1E120D"/>
<path d="M70.4757 77.9055C70.5083 76.9821 70.1829 76.0818 69.5675 75.3925C68.9521 74.7033 68.0943 74.2784 67.1731 74.2066C64.0438 74.2066 59.1642 76.9147 53.88 76.5597C49.6608 76.279 46.449 72.8773 43.328 72.3901C42.2369 72.2446 41.1301 72.4988 40.2119 73.1059C39.2937 73.713 38.6262 74.6319 38.3328 75.6928C36.5163 83.5365 47.2169 88.1272 56.4973 87.6153C65.7777 87.1034 70.55 82.1577 70.4757 77.9055Z" fill="#F4F3E9"/>
<path d="M55.0187 88.7048C48.5043 88.7048 42.1054 86.3682 39.0835 82.7766C38.2117 81.7882 37.5908 80.6044 37.2731 79.3254C36.9555 78.0463 36.9506 76.7095 37.2588 75.4282C37.6142 74.1007 38.442 72.9486 39.5868 72.1885C40.7317 71.4283 42.1147 71.1123 43.476 71.2999C45.0982 71.6709 46.6433 72.3219 48.0419 73.2237C49.8914 74.2475 51.7987 75.3126 53.9371 75.453C56.8517 75.6511 59.7167 74.8337 62.1937 74.1071C63.7935 73.5546 65.4592 73.2159 67.1477 73.0998H67.1972C68.4017 73.1721 69.5316 73.7074 70.3504 74.5939C71.1691 75.4803 71.6132 76.6491 71.5897 77.8556C71.6723 82.8096 66.5284 88.1185 56.538 88.6717C56.0095 88.6965 55.5141 88.7048 55.0187 88.7048ZM42.7082 73.397C41.9519 73.384 41.2122 73.6192 40.6023 74.0665C39.9924 74.5139 39.5459 75.1487 39.3312 75.874C39.0953 76.8309 39.0977 77.8311 39.338 78.7869C39.5784 79.7427 40.0495 80.6249 40.7101 81.3564C43.5421 84.7251 49.9822 86.8305 56.3481 86.4755C64.8854 85.9966 69.4265 81.6784 69.3687 77.8556C69.4122 77.209 69.2006 76.571 68.7792 76.0787C68.3578 75.5863 67.7603 75.2786 67.1147 75.2217C65.637 75.3493 64.181 75.6599 62.7799 76.1465C60.1131 76.9143 57.0829 77.7978 53.7885 77.5666C51.1712 77.3933 48.9502 76.1548 46.9933 75.0897C45.8068 74.3382 44.5079 73.7807 43.1458 73.4383C43.001 73.4147 42.8548 73.4008 42.7082 73.397Z" fill="black"/>
<path d="M53.7971 59.3448C53.0959 57.9952 51.9823 56.9047 50.6183 56.2321C49.1997 55.7228 47.6525 55.6967 46.2175 56.1577" fill="#F4F3E9"/>
<path d="M53.7975 60.4262C53.5961 60.4264 53.3988 60.3701 53.228 60.2635C53.0571 60.1569 52.9197 60.0044 52.8315 59.8234C52.2435 58.7071 51.3231 57.8011 50.1976 57.2309C49.0268 56.8214 47.7545 56.804 46.5729 57.1814C46.3051 57.2665 46.0146 57.244 45.7631 57.1186C45.5115 56.9933 45.3186 56.7749 45.2252 56.5099C45.1319 56.2448 45.1454 55.9537 45.2628 55.6984C45.3803 55.4431 45.5926 55.2435 45.8546 55.142C47.5421 54.5944 49.3642 54.6264 51.0315 55.2328C52.6392 56.0101 53.9516 57.2877 54.7717 58.874C54.8944 59.1327 54.9104 59.4293 54.8161 59.6997C54.7219 59.97 54.525 60.1925 54.2681 60.3189C54.1216 60.3905 53.9605 60.4272 53.7975 60.4262Z" fill="black"/>
<path d="M69.5509 65.3308C68.85 63.9762 67.7329 62.8822 66.3639 62.2098C64.9438 61.7063 63.3977 61.6831 61.9631 62.1437" fill="#F4F3E9"/>
<path d="M69.5511 66.4121C69.3486 66.4129 69.1499 66.3568 68.9777 66.2502C68.8054 66.1437 68.6665 65.9909 68.5769 65.8093C68.0002 64.6854 67.0806 63.7745 65.9513 63.2085C64.7796 62.8037 63.5089 62.7863 62.3266 63.159C62.0588 63.2441 61.7683 63.2216 61.5167 63.0962C61.2652 62.9709 61.0723 62.7525 60.9789 62.4875C60.8856 62.2224 60.899 61.9313 61.0165 61.676C61.134 61.4207 61.3462 61.2211 61.6083 61.1195C63.2969 60.5759 65.1186 60.6108 66.7852 61.2186C68.395 61.9899 69.7065 63.2694 70.5172 64.8598C70.5989 65.0239 70.6374 65.2061 70.6287 65.3893C70.6201 65.5724 70.5647 65.7502 70.4679 65.9058C70.371 66.0615 70.2359 66.1897 70.0754 66.2783C69.9149 66.3669 69.7345 66.413 69.5511 66.4121Z" fill="black"/>
</svg>
