<svg width="22" height="95" viewBox="0 0 22 95" fill="none" xmlns="http://www.w3.org/2000/svg">
<path d="M10.8299 94.7108C8.68797 94.7108 6.59409 94.0756 4.8131 92.8856C3.03212 91.6956 1.64403 90.0042 0.824331 88.0253C0.00463438 86.0463 -0.209757 83.8688 0.208121 81.768C0.625998 79.6672 1.65739 77.7374 3.17199 76.2228C4.68659 74.7082 6.61634 73.6768 8.71715 73.2589C10.818 72.841 12.9956 73.0555 14.9745 73.8752C16.9534 74.6949 18.6448 76.083 19.8348 77.864C21.0248 79.6449 21.66 81.7388 21.66 83.8808C21.6574 86.7523 20.5154 89.5054 18.485 91.5358C16.4545 93.5663 13.7014 94.7081 10.8299 94.7108ZM10.8299 74.5208C8.97871 74.5208 7.16912 75.0697 5.62987 76.0982C4.09063 77.1267 2.89092 78.5886 2.18249 80.2989C1.47405 82.0092 1.28861 83.8912 1.64977 85.7068C2.01093 87.5225 2.9024 89.1903 4.21142 90.4993C5.52044 91.8083 7.18823 92.6998 9.0039 93.0609C10.8196 93.4221 12.7015 93.2368 14.4119 92.5283C16.1222 91.8199 17.584 90.6202 18.6125 89.0809C19.641 87.5417 20.1899 85.732 20.1899 83.8808C20.1899 81.3984 19.2038 79.0176 17.4485 77.2623C15.6931 75.5069 13.3124 74.5208 10.8299 74.5208Z" fill="#F7C92E"/>
<path d="M10.8299 58.1795C8.68797 58.1795 6.59409 57.5444 4.8131 56.3544C3.03212 55.1644 1.64403 53.4729 0.824331 51.494C0.00463438 49.5151 -0.209757 47.3375 0.208121 45.2367C0.625998 43.1359 1.65739 41.2062 3.17199 39.6916C4.68659 38.177 6.61634 37.1455 8.71715 36.7276C10.818 36.3098 12.9956 36.5242 14.9745 37.3439C16.9534 38.1636 18.6448 39.5517 19.8348 41.3327C21.0248 43.1137 21.66 45.2076 21.66 47.3495C21.6574 50.221 20.5154 52.9741 18.485 55.0046C16.4545 57.035 13.7014 58.1769 10.8299 58.1795ZM10.8299 37.9995C8.97829 37.9995 7.16823 38.5488 5.62877 39.5777C4.08931 40.6066 2.88965 42.069 2.18151 43.7799C1.47337 45.4908 1.28853 47.3733 1.6505 49.1893C2.01247 51.0052 2.90494 52.673 4.21496 53.9816C5.52498 55.2902 7.1938 56.1809 9.01012 56.5409C10.8264 56.9009 12.7087 56.7141 14.4188 56.0042C16.129 55.2942 17.5901 54.093 18.6174 52.5524C19.6447 51.0118 20.1919 49.2012 20.1899 47.3495C20.1873 44.8689 19.2 42.4907 17.4449 40.7375C15.6899 38.9843 13.3106 37.9995 10.8299 37.9995Z" fill="#F7C92E"/>
<path d="M10.8299 21.66C8.68797 21.66 6.59409 21.0248 4.8131 19.8348C3.03212 18.6448 1.64403 16.9534 0.824331 14.9745C0.00463438 12.9955 -0.209757 10.818 0.208121 8.71717C0.625998 6.61635 1.65739 4.68664 3.17199 3.17203C4.68659 1.65743 6.61634 0.625983 8.71715 0.208105C10.818 -0.209773 12.9956 0.00467962 14.9745 0.824377C16.9534 1.64407 18.6448 3.03219 19.8348 4.81318C21.0248 6.59416 21.66 8.68802 21.66 10.83C21.6574 13.7015 20.5154 16.4546 18.485 18.4851C16.4545 20.5155 13.7014 21.6574 10.8299 21.66ZM10.8299 1.48002C8.98112 1.48199 7.17446 2.03202 5.63817 3.06061C4.10189 4.08921 2.90499 5.55016 2.19884 7.25882C1.4927 8.96749 1.30899 10.8472 1.67089 12.6602C2.03279 14.4733 2.92403 16.1384 4.23205 17.445C5.54006 18.7516 7.20607 19.6411 9.01952 20.0011C10.833 20.361 12.7125 20.1753 14.4204 19.4673C16.1283 18.7593 17.5879 17.5609 18.6149 16.0235C19.6418 14.4862 20.1899 12.6788 20.1899 10.83C20.1899 9.60129 19.9478 8.38465 19.4773 7.24961C19.0068 6.11456 18.3172 5.08339 17.4479 4.21503C16.5786 3.34667 15.5467 2.65814 14.4111 2.18885C13.2756 1.71956 12.0586 1.4787 10.8299 1.48002Z" fill="#F7C92E"/>
</svg>
