<svg
width="45"
height="44"
viewBox="0 0 45 44"
fill="none"
xmlns="http://www.w3.org/2000/svg"
>
<path
    d="M22.505 1.74135C27.1912 1.74439 31.7315 3.37195 35.3524 6.34681C38.9732 9.32168 41.4508 13.4598 42.363 18.0564C43.2753 22.653 42.5658 27.4236 40.3553 31.5558C38.1449 35.6879 34.5703 38.926 30.2404 40.7183C25.9105 42.5107 21.0931 42.7465 16.6088 41.3857C12.1246 40.0248 8.25079 37.1514 5.64731 33.2549C3.04384 29.3585 1.8717 24.6799 2.33059 20.0162C2.78948 15.3525 4.851 10.9922 8.16399 7.67786C10.0402 5.79062 12.2721 4.29419 14.7305 3.2752C17.1889 2.2562 19.8249 1.73487 22.4861 1.74135H22.505ZM22.4861 3.87256e-05C17.3971 0.00324317 12.4665 1.77066 8.53433 5.00122C4.60215 8.23177 1.91158 12.7256 0.920911 17.7173C-0.0697607 22.7091 0.700739 27.8898 3.1012 32.3772C5.50166 36.8645 9.38358 40.3809 14.0857 42.3273C18.7879 44.2737 24.0194 44.5298 28.8891 43.0518C33.7588 41.5739 37.9656 38.4534 40.7928 34.2219C43.62 29.9904 44.8927 24.9096 44.3942 19.845C43.8957 14.7804 41.6568 10.0453 38.0588 6.44618C36.0164 4.39796 33.589 2.77395 30.9164 1.66765C28.2437 0.561341 25.3787 -0.00539644 22.4861 3.87256e-05Z"
    fill="#F7C92E"
/>
<path
    d="M20.872 14.6039L20.3671 15.7647C20.302 15.9175 20.2997 16.0898 20.3607 16.2444C20.4216 16.3989 20.5409 16.5232 20.6927 16.5905L26.9454 19.3134L11.8446 24.6317C11.6923 24.6893 11.5681 24.8033 11.4978 24.9501C11.4275 25.0968 11.4165 25.2651 11.4671 25.4198L11.8871 26.609C11.9427 26.7663 12.0582 26.8952 12.2085 26.9677C12.3588 27.0402 12.5316 27.0503 12.6893 26.996L27.7901 21.6776L24.6237 27.7132C24.585 27.7863 24.5612 27.8663 24.5536 27.9486C24.546 28.0309 24.5547 28.1139 24.5793 28.1928C24.6039 28.2718 24.6438 28.3451 24.6967 28.4085C24.7497 28.472 24.8147 28.5244 24.8879 28.5626L26.0063 29.1478C26.1542 29.2245 26.3263 29.2398 26.4854 29.1903C26.6444 29.1408 26.7775 29.0306 26.8557 28.8836L31.8296 19.4078C31.8699 19.3309 31.8939 19.2466 31.9002 19.16C31.9065 19.0734 31.8949 18.9865 31.8661 18.9046C31.8374 18.8227 31.792 18.7475 31.733 18.6839C31.6739 18.6203 31.6024 18.5695 31.5228 18.5348L21.712 14.2641C21.6347 14.2301 21.5514 14.2119 21.4669 14.2106C21.3825 14.2094 21.2987 14.225 21.2204 14.2567C21.1421 14.2884 21.0709 14.3354 21.0111 14.395C20.9513 14.4547 20.904 14.5257 20.872 14.6039Z"
    fill="#F7C92E"
/>
<path
    d="M26.8418 28.2857C26.7073 28.2841 26.575 28.2518 26.4549 28.1913L25.3365 27.6014C25.1433 27.5036 24.996 27.3343 24.9259 27.1295C24.8926 27.0241 24.8805 26.9131 24.8902 26.803C24.8999 26.6929 24.9313 26.5857 24.9825 26.4877L27.9036 20.924L13.2747 26.0677C13.1706 26.105 13.0602 26.1212 12.9498 26.1155C12.8394 26.1097 12.7313 26.0822 12.6316 26.0343C12.532 25.9865 12.4428 25.9193 12.3693 25.8368C12.2958 25.7542 12.2395 25.6579 12.2035 25.5534L11.7835 24.3642C11.7109 24.1539 11.7241 23.9234 11.8205 23.7228C11.9168 23.5223 12.0883 23.3678 12.2979 23.293L26.9268 18.154L21.1601 15.6435C21.0585 15.5983 20.9669 15.5333 20.8907 15.4523C20.8146 15.3712 20.7553 15.2758 20.7165 15.1716C20.6734 15.0701 20.6512 14.9609 20.6512 14.8507C20.6512 14.7404 20.6734 14.6313 20.7165 14.5298L21.2215 13.3736C21.3105 13.1698 21.4768 13.0096 21.6838 12.9282C21.8909 12.8469 22.1217 12.8509 22.3257 12.9395L32.1365 17.2102C32.242 17.2561 32.3369 17.3232 32.4153 17.4074C32.4938 17.4915 32.5541 17.5908 32.5926 17.6992C32.6311 17.8076 32.6469 17.9227 32.6391 18.0375C32.6313 18.1523 32.5999 18.2642 32.5471 18.3663L27.5733 27.8468C27.502 27.9789 27.3965 28.0894 27.2678 28.1667C27.1391 28.2439 26.9919 28.285 26.8418 28.2857ZM28.7719 20.1595L25.3553 26.6623C25.3041 26.7614 25.2939 26.8767 25.327 26.9832C25.3425 27.037 25.369 27.0869 25.4047 27.13C25.4404 27.173 25.4847 27.2082 25.5346 27.2334L26.6483 27.8185C26.7479 27.87 26.8638 27.8801 26.9708 27.8465C27.0778 27.8129 27.1671 27.7384 27.2193 27.6392L32.1884 18.1634C32.2166 18.1127 32.2334 18.0564 32.2375 17.9985C32.2416 17.9406 32.2329 17.8825 32.212 17.8284C32.1941 17.7736 32.1646 17.7233 32.1255 17.681C32.0864 17.6386 32.0387 17.6052 31.9855 17.583L22.1747 13.3359C22.0727 13.2916 21.9573 13.2896 21.8538 13.3303C21.7503 13.371 21.6671 13.451 21.6226 13.5529L21.1177 14.7091C21.0943 14.7598 21.0815 14.8146 21.0798 14.8704C21.0781 14.9261 21.0877 14.9817 21.108 15.0336C21.1282 15.0856 21.1587 15.133 21.1977 15.1729C21.2367 15.2128 21.2833 15.2444 21.3347 15.2659L28.0782 18.1965L12.463 23.6941C12.4101 23.7118 12.3615 23.7402 12.3201 23.7776C12.2787 23.8149 12.2454 23.8604 12.2223 23.9112C12.2002 23.9618 12.1889 24.0164 12.1889 24.0716C12.1889 24.1268 12.2002 24.1814 12.2223 24.232L12.6423 25.4212C12.6806 25.5252 12.7564 25.611 12.8547 25.6619C12.9574 25.7044 13.0728 25.7044 13.1756 25.6619L28.7719 20.1595Z"
    fill="black"
/>
</svg>