<svg width="98" height="103" viewBox="0 0 98 103" fill="none" xmlns="http://www.w3.org/2000/svg">
<path d="M13.6512 0H86.3487C92.7835 0 98 5.21646 98 11.6513V84.3488C98 90.7836 92.7835 96.0001 86.3487 96.0001H13.6512C7.21641 96.0001 1.99994 90.7836 1.99994 84.3488V11.6513C1.99994 5.21646 7.21641 0 13.6512 0Z" fill="#F7C92E"/>
<path d="M43.2369 16.25C45.3538 12.5833 50.6462 12.5833 52.7631 16.25L83.94 70.25C86.057 73.9167 83.4108 78.5 79.1769 78.5H16.8231C12.5892 78.5 9.943 73.9167 12.0599 70.25L43.2369 16.25Z" fill="black" stroke="black"/>
<path d="M48.6688 62.3895C48.4431 62.3895 48.2174 62.3895 47.9863 62.3895C44.2245 62.1743 40.8981 60.2257 39.7642 57.5408C39.6552 57.2824 39.648 56.9889 39.7442 56.7249C39.8405 56.4609 40.0323 56.2481 40.2774 56.1332C40.5225 56.0182 40.8009 56.0107 41.0514 56.1121C41.3018 56.2136 41.5038 56.4157 41.6128 56.6741C42.4189 58.583 45.1435 60.0728 48.0991 60.2654C49.663 60.356 53.5268 60.1634 55.6226 56.4022C55.684 56.2713 55.7702 56.155 55.876 56.0607C55.9819 55.9664 56.105 55.896 56.2377 55.8539C56.3704 55.8119 56.5099 55.799 56.6475 55.8162C56.7851 55.8334 56.9179 55.8803 57.0376 55.9539C57.1572 56.0275 57.2613 56.1263 57.3432 56.2441C57.4252 56.3619 57.4832 56.4962 57.5138 56.6386C57.5444 56.7811 57.5469 56.9286 57.5211 57.0721C57.4953 57.2156 57.4417 57.352 57.3638 57.4728C55.6226 60.5769 52.409 62.3895 48.6688 62.3895Z" fill="white"/>
<path d="M55.5622 48.2877C53.6905 48.2066 51.8899 47.5981 50.4 46.5433C50.2958 46.4659 50.209 46.3703 50.1446 46.2618C50.0801 46.1533 50.0394 46.034 50.0246 45.9109C50.0098 45.7878 50.0213 45.6632 50.0584 45.5442C50.0954 45.4252 50.1574 45.3141 50.2407 45.2173C50.3241 45.1206 50.4271 45.04 50.5439 44.9802C50.6608 44.9204 50.7892 44.8825 50.9219 44.8688C51.0545 44.8551 51.1887 44.8657 51.3169 44.9001C51.4451 44.9346 51.5647 44.9921 51.669 45.0695C51.7068 45.0695 53.6183 46.4831 55.7458 46.3979C57.8733 46.3127 59.5958 44.7787 59.612 44.7637C59.8068 44.6038 60.0604 44.5194 60.3203 44.5279C60.5803 44.5365 60.8267 44.6373 61.0089 44.8097C61.1911 44.982 61.295 45.2127 61.2994 45.4541C61.3037 45.6955 61.208 45.9293 61.0321 46.1071C60.9403 46.1924 58.7534 48.1624 55.8322 48.2777L55.5622 48.2877Z" fill="white"/>
<path d="M39.5803 48.2876C37.7081 48.209 35.9067 47.6002 34.4181 46.5431C34.3139 46.4658 34.2271 46.3701 34.1627 46.2617C34.0983 46.1532 34.0575 46.0339 34.0427 45.9108C34.0279 45.7877 34.0394 45.663 34.0765 45.544C34.1135 45.425 34.1755 45.314 34.2588 45.2172C34.3422 45.1204 34.4452 45.0399 34.5621 44.9801C34.6789 44.9203 34.8073 44.8824 34.94 44.8687C35.0726 44.855 35.2068 44.8656 35.335 44.9C35.4632 44.9344 35.5828 44.992 35.6871 45.0693C35.7195 45.0693 37.6256 46.478 39.7639 46.3978C41.9022 46.3176 43.6139 44.7786 43.6301 44.7636C43.825 44.6036 44.0785 44.5193 44.3385 44.5278C44.5984 44.5364 44.8449 44.6372 45.027 44.8095C45.2092 44.9819 45.3132 45.2125 45.3175 45.454C45.3218 45.6954 45.2261 45.9292 45.0502 46.107C44.9584 46.1922 42.7716 48.1623 39.8503 48.2776L39.5803 48.2876Z" fill="white"/>
</svg>
